<?xml version="1.0" encoding="UTF-8"?>
<svg width="76px" height="76px" viewBox="0 0 76 76" version="1.1" xmlns="http://www.w3.org/2000/svg" xmlns:xlink="http://www.w3.org/1999/xlink">
    <!-- Generator: sketchtool 53.2 (72643) - https://sketchapp.com -->
    <title>9E136D92-01E8-4CFE-B8FF-065A9A40DD62@3x</title>
    <desc>Created with sketchtool.</desc>
    <g id="Home" stroke="none" stroke-width="1" fill="none" fill-rule="evenodd">
        <g transform="translate(-502.000000, -3604.000000)" id="Group-19">
            <g transform="translate(459.000000, 3604.000000)">
                <g id="Group">
                    <g id="Icons/Services/BigData" transform="translate(43.000000, 0.000000)">
                        <g>
                            <rect id="Rectangle-Copy-6" fill="#FDC02F" x="0" y="0" width="76" height="76" rx="20"></rect>
                            <path d="M62,27.25 C62,25.4773214 60.5648,24.0357143 58.8,24.0357143 C57.0352,24.0357143 55.6,25.4773214 55.6,27.25 C55.6,27.8446429 55.772,28.3942857 56.0536,28.8724107 L47.6152,37.3484821 C47.1392,37.065625 46.592,36.8928571 46,36.8928571 C45.4104,36.8928571 44.864,37.0648214 44.3888,37.3460714 L40.7488,33.6898214 C41.0288,33.2125 41.2,32.6636607 41.2,32.0714286 C41.2,30.29875 39.7648,28.8571429 38,28.8571429 C36.2352,28.8571429 34.8,30.29875 34.8,32.0714286 C34.8,32.4507143 34.8776,32.8091071 34.9984,33.1466071 L19.28,48.9351786 C18.7192,48.4482143 17.9976,48.1428571 17.2,48.1428571 L17.2,20.0178571 C17.2,18.68875 18.2768,17.6071429 19.6,17.6071429 L56.4,17.6071429 C57.7232,17.6071429 58.8,18.68875 58.8,20.0178571 L58.8,21.625 C58.8,22.0685714 59.1584,22.4285714 59.6,22.4285714 C60.0416,22.4285714 60.4,22.0685714 60.4,21.625 L60.4,20.0178571 C60.4,17.8024107 58.6056,16 56.4,16 L19.6,16 C17.3944,16 15.6,17.8024107 15.6,20.0178571 L15.6,48.5904464 C14.648,49.148125 14,50.1726786 14,51.3571429 C14,53.1298214 15.4352,54.5714286 17.2,54.5714286 C18.9648,54.5714286 20.4,53.1298214 20.4,51.3571429 C20.4,50.9778571 20.3224,50.6194643 20.2016,50.2819643 L35.92,34.4933929 C36.4808,34.9803571 37.2024,35.2857143 38,35.2857143 C38.5936,35.2857143 39.1424,35.1121429 39.6192,34.8284821 L43.2552,38.4807143 C42.9728,38.9596429 42.8,39.5108929 42.8,40.1071429 C42.8,41.8798214 44.2352,43.3214286 46,43.3214286 C47.7648,43.3214286 49.2,41.8798214 49.2,40.1071429 C49.2,39.5125 49.028,38.9628571 48.7464,38.4847321 L57.1848,30.0086607 C57.6608,30.2915179 58.208,30.4642857 58.8,30.4642857 L58.8,56.9821429 C58.8,58.31125 57.7232,59.3928571 56.4,59.3928571 L54,59.3928571 L54,37.6964286 C54,37.2528571 53.6416,36.8928571 53.2,36.8928571 C52.7584,36.8928571 52.4,37.2528571 52.4,37.6964286 L52.4,59.3928571 L47.6,59.3928571 L47.6,45.7321429 C47.6,45.2885714 47.2416,44.9285714 46.8,44.9285714 C46.3584,44.9285714 46,45.2885714 46,45.7321429 L46,59.3928571 L41.2,59.3928571 L41.2,39.3035714 C41.2,38.86 40.8416,38.5 40.4,38.5 C39.9584,38.5 39.6,38.86 39.6,39.3035714 L39.6,59.3928571 L34.8,59.3928571 L34.8,39.3035714 C34.8,38.86 34.4416,38.5 34,38.5 C33.5584,38.5 33.2,38.86 33.2,39.3035714 L33.2,59.3928571 L28.4,59.3928571 L28.4,45.7321429 C28.4,45.2885714 28.0416,44.9285714 27.6,44.9285714 C27.1584,44.9285714 26.8,45.2885714 26.8,45.7321429 L26.8,59.3928571 L22,59.3928571 L22,56.1785714 C22,55.735 21.6416,55.375 21.2,55.375 C20.7584,55.375 20.4,55.735 20.4,56.1785714 L20.4,59.3928571 L19.6,59.3928571 C18.2768,59.3928571 17.2,58.31125 17.2,56.9821429 C17.2,56.5385714 16.8416,56.1785714 16.4,56.1785714 C15.9584,56.1785714 15.6,56.5385714 15.6,56.9821429 C15.6,59.1975893 17.3944,61 19.6,61 L56.4,61 C58.6056,61 60.4,59.1975893 60.4,56.9821429 L60.4,30.0166964 C61.352,29.4590179 62,28.4344643 62,27.25 L62,27.25 Z M17.2,52.9642857 C16.3176,52.9642857 15.6,52.2434821 15.6,51.3571429 C15.6,50.4708036 16.3176,49.75 17.2,49.75 C18.0824,49.75 18.8,50.4708036 18.8,51.3571429 C18.8,52.2434821 18.0824,52.9642857 17.2,52.9642857 L17.2,52.9642857 Z M36.4,32.0714286 C36.4,31.1850893 37.1176,30.4642857 38,30.4642857 C38.8824,30.4642857 39.6,31.1850893 39.6,32.0714286 C39.6,32.9577679 38.8824,33.6785714 38,33.6785714 C37.1176,33.6785714 36.4,32.9577679 36.4,32.0714286 L36.4,32.0714286 Z M46,41.7142857 C45.1176,41.7142857 44.4,40.9934821 44.4,40.1071429 C44.4,39.2208036 45.1176,38.5 46,38.5 C46.8824,38.5 47.6,39.2208036 47.6,40.1071429 C47.6,40.9934821 46.8824,41.7142857 46,41.7142857 L46,41.7142857 Z M58.8,28.8571429 C58.364,28.8571429 57.968,28.6795536 57.6792,28.3942857 C57.676,28.3910714 57.6752,28.38625 57.672,28.3830357 C57.6688,28.3798214 57.664,28.3790179 57.6608,28.3758036 C57.3768,28.0857143 57.2,27.6879464 57.2,27.25 C57.2,26.3636607 57.9176,25.6428571 58.8,25.6428571 C59.6824,25.6428571 60.4,26.3636607 60.4,27.25 C60.4,28.1363393 59.6824,28.8571429 58.8,28.8571429 L58.8,28.8571429 Z" id="stats-lines" fill="#FFFFFF"></path>
                        </g>
                    </g>
                </g>
            </g>
        </g>
    </g>
</svg>