<?xml version="1.0" encoding="UTF-8"?>
<svg width="76px" height="76px" viewBox="0 0 76 76" version="1.1" xmlns="http://www.w3.org/2000/svg" xmlns:xlink="http://www.w3.org/1999/xlink">
    <!-- Generator: sketchtool 53.2 (72643) - https://sketchapp.com -->
    <title>E4D83655-72D6-4DF3-AF5A-B91DBAF24619@3x</title>
    <desc>Created with sketchtool.</desc>
    <g id="Home" stroke="none" stroke-width="1" fill="none" fill-rule="evenodd">
        <g transform="translate(-702.000000, -3604.000000)" id="Group-20">
            <g transform="translate(658.000000, 3604.000000)">
                <g id="Group-10">
                    <g id="Icons/Services/Blockchain" transform="translate(44.000000, 0.000000)">
                        <g>
                            <rect id="Rectangle-Copy-7" fill="#FD9727" x="0" y="0" width="76" height="76" rx="20"></rect>
                            <path d="M36.4,37.6964286 C36.4,38.5827679 37.1176,39.3035714 38,39.3035714 C39.7648,39.3035714 41.2,40.7451786 41.2,42.5178571 C41.2,44.0108929 40.1768,45.2588393 38.8,45.6180357 L38.8,45.7321429 C38.8,46.1757143 38.4416,46.5357143 38,46.5357143 C37.5584,46.5357143 37.2,46.1757143 37.2,45.7321429 L37.2,45.6180357 C35.824,45.2588393 34.8,44.0108929 34.8,42.5178571 C34.8,42.0742857 35.1584,41.7142857 35.6,41.7142857 C36.0416,41.7142857 36.4,42.0742857 36.4,42.5178571 C36.4,43.4041964 37.1176,44.125 38,44.125 C38.8824,44.125 39.6,43.4041964 39.6,42.5178571 C39.6,41.6315179 38.8824,40.9107143 38,40.9107143 C36.2352,40.9107143 34.8,39.4691071 34.8,37.6964286 C34.8,36.2033929 35.824,34.9554464 37.2,34.59625 L37.2,34.4821429 C37.2,34.0385714 37.5584,33.6785714 38,33.6785714 C38.4416,33.6785714 38.8,34.0385714 38.8,34.4821429 L38.8,34.59625 C40.1768,34.9554464 41.2,36.2033929 41.2,37.6964286 C41.2,38.14 40.8424,38.5 40.4,38.5 C39.9576,38.5 39.6,38.14 39.6,37.6964286 C39.6,36.8100893 38.8824,36.0892857 38,36.0892857 C37.1176,36.0892857 36.4,36.8100893 36.4,37.6964286 L36.4,37.6964286 Z M38,49.75 C32.7064,49.75 28.4,45.424375 28.4,40.1071429 C28.4,34.7899107 32.7064,30.4642857 38,30.4642857 C43.2936,30.4642857 47.6,34.7899107 47.6,40.1071429 C47.6,45.424375 43.2936,49.75 38,49.75 L38,49.75 Z M49.2,40.1071429 C49.2,33.9035714 44.176,28.8571429 38,28.8571429 C31.824,28.8571429 26.8,33.9035714 26.8,40.1071429 C26.8,46.3107143 31.824,51.3571429 38,51.3571429 C44.176,51.3571429 49.2,46.3107143 49.2,40.1071429 L49.2,40.1071429 Z M50.8,59.3928571 C49.9176,59.3928571 49.2,58.6720536 49.2,57.7857143 C49.2,56.899375 49.9176,56.1785714 50.8,56.1785714 C51.6824,56.1785714 52.4,56.899375 52.4,57.7857143 C52.4,58.6720536 51.6824,59.3928571 50.8,59.3928571 L50.8,59.3928571 Z M50.8,54.5714286 C50.3536,54.5714286 49.9296,54.6646429 49.544,54.8309821 L46.0344,50.6178571 C45.752,50.2779464 45.2488,50.2321429 44.908,50.5166071 C44.5688,50.801875 44.524,51.308125 44.808,51.6488393 L48.284,55.8233929 C47.8616,56.3674107 47.6,57.0432143 47.6,57.7857143 C47.6,59.5583929 49.0352,61 50.8,61 C52.5648,61 54,59.5583929 54,57.7857143 C54,56.0130357 52.5648,54.5714286 50.8,54.5714286 L50.8,54.5714286 Z M25.2,59.3928571 C24.3176,59.3928571 23.6,58.6720536 23.6,57.7857143 C23.6,56.899375 24.3176,56.1785714 25.2,56.1785714 C26.0824,56.1785714 26.8,56.899375 26.8,57.7857143 C26.8,58.6720536 26.0824,59.3928571 25.2,59.3928571 L25.2,59.3928571 Z M29.9656,50.6178571 L26.456,54.8309821 C26.0704,54.6646429 25.6464,54.5714286 25.2,54.5714286 C23.4352,54.5714286 22,56.0130357 22,57.7857143 C22,59.5583929 23.4352,61 25.2,61 C26.9648,61 28.4,59.5583929 28.4,57.7857143 C28.4,57.0432143 28.1376,56.3682143 27.716,55.8233929 L31.1928,51.6488393 C31.476,51.308125 31.4312,50.801875 31.092,50.5166071 C30.7536,50.2321429 30.248,50.2763393 29.9656,50.6178571 L29.9656,50.6178571 Z M58.8,35.2857143 C57.9176,35.2857143 57.2,34.5649107 57.2,33.6785714 C57.2,32.7922321 57.9176,32.0714286 58.8,32.0714286 C59.6824,32.0714286 60.4,32.7922321 60.4,33.6785714 C60.4,34.5649107 59.6824,35.2857143 58.8,35.2857143 L58.8,35.2857143 Z M58.8,30.4642857 C57.0352,30.4642857 55.6,31.9058929 55.6,33.6785714 C55.6,33.780625 55.62,33.8770536 55.6296,33.9775 L50.5232,35.9944643 C50.1128,36.1567857 49.9104,36.6236607 50.072,37.0366964 C50.196,37.3525 50.4976,37.5461607 50.8168,37.5461607 C50.9144,37.5461607 51.0136,37.5284821 51.1096,37.4899107 L56.1632,35.4938393 C56.7408,36.3375893 57.7064,36.8928571 58.8,36.8928571 C60.5648,36.8928571 62,35.45125 62,33.6785714 C62,31.9058929 60.5648,30.4642857 58.8,30.4642857 L58.8,30.4642857 Z M17.2,35.2857143 C16.3176,35.2857143 15.6,34.5649107 15.6,33.6785714 C15.6,32.7922321 16.3176,32.0714286 17.2,32.0714286 C18.0824,32.0714286 18.8,32.7922321 18.8,33.6785714 C18.8,34.5649107 18.0824,35.2857143 17.2,35.2857143 L17.2,35.2857143 Z M24.8912,37.4899107 C24.9872,37.5276786 25.0856,37.5461607 25.1832,37.5461607 C25.5024,37.5461607 25.804,37.3525 25.928,37.0358929 C26.0896,36.6228571 25.8872,36.1559821 25.476,35.9936607 L20.3696,33.9775 C20.3792,33.8770536 20.4,33.780625 20.4,33.6785714 C20.4,31.9058929 18.9648,30.4642857 17.2,30.4642857 C15.4352,30.4642857 14,31.9058929 14,33.6785714 C14,35.45125 15.4352,36.8928571 17.2,36.8928571 C18.2936,36.8928571 19.26,36.3375893 19.8368,35.4938393 L24.8912,37.4899107 Z M38,17.6071429 C38.8824,17.6071429 39.6,18.3279464 39.6,19.2142857 C39.6,20.100625 38.8824,20.8214286 38,20.8214286 C37.1176,20.8214286 36.4,20.100625 36.4,19.2142857 C36.4,18.3279464 37.1176,17.6071429 38,17.6071429 L38,17.6071429 Z M37.2,22.3144643 L37.2,26.4464286 C37.2,26.89 37.5584,27.25 38,27.25 C38.4416,27.25 38.8,26.89 38.8,26.4464286 L38.8,22.3144643 C40.1768,21.9552679 41.2,20.7073214 41.2,19.2142857 C41.2,17.4416071 39.7648,16 38,16 C36.2352,16 34.8,17.4416071 34.8,19.2142857 C34.8,20.7073214 35.824,21.9552679 37.2,22.3144643 L37.2,22.3144643 Z" id="money-share" fill="#FFFFFF"></path>
                        </g>
                    </g>
                </g>
            </g>
        </g>
    </g>
</svg>