<?xml version="1.0" encoding="UTF-8"?>
<svg width="99px" height="66px" viewBox="0 0 99 66" version="1.1" xmlns="http://www.w3.org/2000/svg" xmlns:xlink="http://www.w3.org/1999/xlink">
    <!-- Generator: sketchtool 53.2 (72643) - https://sketchapp.com -->
    <title>661B2D1D-9B66-4F1C-B934-C01480D9ADD3@3x</title>
    <desc>Created with sketchtool.</desc>
    <g id="Home" stroke="none" stroke-width="1" fill="none" fill-rule="evenodd">
        <g transform="translate(-461.000000, -2309.000000)" fill="#2883F1" id="Group-4">
            <g transform="translate(456.000000, 2309.000000)">
                <g id="Icons/automotive" transform="translate(5.000000, -0.000000)">
                    <path d="M77.0344262,42.6229508 C74.3229508,42.6229508 72.1163934,44.8295082 72.1163934,47.5409836 C72.1163934,50.252459 74.3229508,52.4590164 77.0344262,52.4590164 C79.747541,52.4590164 81.952459,50.252459 81.952459,47.5409836 C81.952459,44.8295082 79.747541,42.6229508 77.0344262,42.6229508 L77.0344262,42.6229508 Z M77.0344262,49.1803279 C76.1311475,49.1803279 75.395082,48.4442623 75.395082,47.5409836 C75.395082,46.6377049 76.1311475,45.9016393 77.0344262,45.9016393 C77.9393443,45.9016393 78.6737705,46.6377049 78.6737705,47.5409836 C78.6737705,48.4442623 77.9393443,49.1803279 77.0344262,49.1803279 L77.0344262,49.1803279 Z M21.3114754,42.6229508 C18.6,42.6229508 16.3934426,44.8295082 16.3934426,47.5409836 C16.3934426,50.252459 18.6,52.4590164 21.3114754,52.4590164 C24.0229508,52.4590164 26.2295082,50.252459 26.2295082,47.5409836 C26.2295082,44.8295082 24.0229508,42.6229508 21.3114754,42.6229508 L21.3114754,42.6229508 Z M21.3114754,49.1803279 C20.4081967,49.1803279 19.6721311,48.4442623 19.6721311,47.5409836 C19.6721311,46.6377049 20.4081967,45.9016393 21.3114754,45.9016393 C22.2147541,45.9016393 22.9508197,46.6377049 22.9508197,47.5409836 C22.9508197,48.4442623 22.2147541,49.1803279 21.3114754,49.1803279 L21.3114754,49.1803279 Z M0,44.2622951 L0,27.8688525 C0,25.157377 2.20655738,22.9508197 4.91803279,22.9508197 L36.0655738,22.9508197 L36.0655738,8.19672131 C36.0655738,7.29180328 36.8,6.55737705 37.704918,6.55737705 C38.6098361,6.55737705 39.3442623,7.29180328 39.3442623,8.19672131 L39.3442623,22.9508197 L57.9885246,22.9508197 L60.8147541,17.3 C61.2213115,16.4901639 62.2016393,16.1606557 63.0131148,16.5672131 C63.8245902,16.9721311 64.152459,17.9557377 63.747541,18.7655738 L61.6540984,22.9508197 L67.1983607,22.9508197 C68.104918,22.9508197 68.8377049,23.6852459 68.8377049,24.5901639 C68.8377049,25.495082 68.104918,26.2295082 67.1983607,26.2295082 L39.704918,26.2295082 L42.5901639,40.6622951 C42.7688525,41.5491803 42.1934426,42.4131148 41.304918,42.5918033 C41.1967213,42.6131148 41.0885246,42.6229508 40.9819672,42.6229508 C40.2163934,42.6229508 39.5311475,42.0836066 39.3754098,41.304918 L36.3606557,26.2295082 L4.91803279,26.2295082 C4.0147541,26.2295082 3.27868852,26.9655738 3.27868852,27.8688525 L3.27868852,32.7868852 L4.91803279,32.7868852 C5.82295082,32.7868852 6.55737705,33.5213115 6.55737705,34.4262295 C6.55737705,35.3311475 5.82295082,36.0655738 4.91803279,36.0655738 L3.27868852,36.0655738 L3.27868852,44.2622951 C3.27868852,45.1655738 4.0147541,45.9016393 4.91803279,45.9016393 L5.76393443,45.9016393 C6.66885246,45.9016393 7.40327869,46.6360656 7.40327869,47.5409836 C7.40327869,48.4459016 6.66885246,49.1803279 5.76393443,49.1803279 L4.91803279,49.1803279 C2.20655738,49.1803279 0,46.9737705 0,44.2622951 L0,44.2622951 Z M60.6409836,49.1803279 C61.547541,49.1803279 62.2803279,48.4459016 62.2803279,47.5409836 C62.2803279,46.6360656 61.547541,45.9016393 60.6409836,45.9016393 L32.6557377,45.9016393 C31.857377,40.3491803 27.0803279,36.0655738 21.3114754,36.0655738 C14.9836066,36.0655738 9.83606557,41.2131148 9.83606557,47.5409836 C9.83606557,53.8688525 14.9836066,59.0163934 21.3114754,59.0163934 C27.0803279,59.0163934 31.857377,54.7327869 32.6557377,49.1803279 L60.6409836,49.1803279 L60.6409836,49.1803279 Z M21.3114754,55.7377049 C16.7918033,55.7377049 13.1147541,52.0606557 13.1147541,47.5409836 C13.1147541,43.0213115 16.7918033,39.3442623 21.3114754,39.3442623 C25.8311475,39.3442623 29.5081967,43.0213115 29.5081967,47.5409836 C29.5081967,52.0606557 25.8311475,55.7377049 21.3114754,55.7377049 L21.3114754,55.7377049 Z M14.1081967,19.5393443 C14.9393443,19.8934426 15.9032787,19.5098361 16.2606557,18.6786885 L21.1377049,7.29016393 C22.5065574,4.55409836 24.6459016,3.27868852 27.8688525,3.27868852 L50.8196721,3.27868852 C54.8016393,3.27868852 58.4803279,5.4 60.9704918,9.18196721 L70.7606557,22.195082 C71.1901639,22.9770492 73.2114754,26.2295082 77.0344262,26.2295082 L81.952459,26.2295082 C88.9868852,26.2295082 91.7770492,30.1229508 92.8639344,32.7868852 L90.1491803,32.7868852 C89.242623,32.7868852 88.5098361,33.5213115 88.5098361,34.4262295 C88.5098361,35.3311475 89.242623,36.0655738 90.1491803,36.0655738 L93.6737705,36.0655738 L95.0196721,44.3704918 C95.1327869,44.804918 95.0967213,45.1459016 94.9081967,45.3868852 C94.657377,45.7147541 94.1163934,45.9016393 93.4278689,45.9016393 L88.3786885,45.9016393 C87.5803279,40.3491803 82.8032787,36.0655738 77.0344262,36.0655738 C70.7081967,36.0655738 65.5590164,41.2131148 65.5590164,47.5409836 C65.5590164,53.8688525 70.7081967,59.0163934 77.0344262,59.0163934 C82.8032787,59.0163934 87.5803279,54.7327869 88.3786885,49.1803279 L93.4278689,49.1803279 C95.1672131,49.1803279 96.6147541,48.5442623 97.504918,47.3901639 C98.3213115,46.3327869 98.5639344,44.9639344 98.2229508,43.6934426 L96.6754098,34.104918 C95.595082,28.7131148 91.1622951,22.9508197 81.952459,22.9508197 L77.0344262,22.9508197 C74.842623,22.9508197 73.6262295,20.6032787 73.6180328,20.5901639 C73.5737705,20.4967213 73.5196721,20.4081967 73.457377,20.3262295 L63.6508197,7.29672131 C60.6459016,2.72786885 55.8491803,-2.13162821e-13 50.8196721,-2.13162821e-13 L27.8688525,-2.13162821e-13 C23.3901639,-2.13162821e-13 20.1377049,1.95901639 18.1655738,5.91147541 L13.247541,17.3868852 C12.8901639,18.2196721 13.2770492,19.1836066 14.1081967,19.5393443 L14.1081967,19.5393443 Z M77.0344262,55.7377049 C72.5147541,55.7377049 68.8377049,52.0606557 68.8377049,47.5409836 C68.8377049,43.0213115 72.5147541,39.3442623 77.0344262,39.3442623 C81.5540984,39.3442623 85.2311475,43.0213115 85.2311475,47.5409836 C85.2311475,52.0606557 81.5540984,55.7377049 77.0344262,55.7377049 L77.0344262,55.7377049 Z M47.5409836,29.5081967 C48.4459016,29.5081967 49.1803279,30.242623 49.1803279,31.147541 C49.1803279,32.052459 48.4459016,32.7868852 47.5409836,32.7868852 L45.9016393,32.7868852 C44.9967213,32.7868852 44.2622951,32.052459 44.2622951,31.147541 C44.2622951,30.242623 44.9967213,29.5081967 45.9016393,29.5081967 L47.5409836,29.5081967 L47.5409836,29.5081967 Z M26.2295082,63.9344262 C26.2295082,64.8393443 25.495082,65.5737705 24.5901639,65.5737705 L1.63934426,65.5737705 C0.73442623,65.5737705 0,64.8393443 0,63.9344262 C0,63.0295082 0.73442623,62.295082 1.63934426,62.295082 L24.5901639,62.295082 C25.495082,62.295082 26.2295082,63.0295082 26.2295082,63.9344262 L26.2295082,63.9344262 Z M52.4590164,63.9344262 C52.4590164,64.8393443 51.7262295,65.5737705 50.8196721,65.5737705 L34.4262295,65.5737705 C33.5213115,65.5737705 32.7868852,64.8393443 32.7868852,63.9344262 C32.7868852,63.0295082 33.5213115,62.295082 34.4262295,62.295082 L50.8196721,62.295082 C51.7262295,62.295082 52.4590164,63.0295082 52.4590164,63.9344262 L52.4590164,63.9344262 Z M98.3606557,63.9344262 C98.3606557,64.8393443 97.6278689,65.5737705 96.7213115,65.5737705 L70.4918033,65.5737705 C69.5852459,65.5737705 68.852459,64.8393443 68.852459,63.9344262 C68.852459,63.0295082 69.5852459,62.295082 70.4918033,62.295082 L96.7213115,62.295082 C97.6278689,62.295082 98.3606557,63.0295082 98.3606557,63.9344262 L98.3606557,63.9344262 Z M65.5737705,63.9344262 C65.5737705,64.8393443 64.8409836,65.5737705 63.9344262,65.5737705 L60.6557377,65.5737705 C59.7491803,65.5737705 59.0163934,64.8393443 59.0163934,63.9344262 C59.0163934,63.0295082 59.7491803,62.295082 60.6557377,62.295082 L63.9344262,62.295082 C64.8409836,62.295082 65.5737705,63.0295082 65.5737705,63.9344262 L65.5737705,63.9344262 Z" id="car"></path>
                </g>
            </g>
        </g>
    </g>
</svg>