<?xml version="1.0" encoding="UTF-8"?>
<svg width="76px" height="76px" viewBox="0 0 76 76" version="1.1" xmlns="http://www.w3.org/2000/svg" xmlns:xlink="http://www.w3.org/1999/xlink">
    <!-- Generator: sketchtool 53.2 (72643) - https://sketchapp.com -->
    <title>F7B95CF3-051A-4B33-8F60-AFE594001D15@3x</title>
    <desc>Created with sketchtool.</desc>
    <g id="Home" stroke="none" stroke-width="1" fill="none" fill-rule="evenodd">
        <g transform="translate(-702.000000, -3865.000000)" id="Group-25">
            <g transform="translate(658.000000, 3865.000000)">
                <g id="Icons/Services/Certification" transform="translate(44.000000, 0.000000)">
                    <g>
                        <rect id="Rectangle-Copy-11" fill="#6772E5" x="0" y="0" width="76" height="76" rx="20"></rect>
                        <path d="M55.7799773,39.6777127 C55.3391335,39.7057327 55.0039002,40.0860033 55.031903,40.5271173 C55.3207317,45.1167838 54.8670867,49.6992453 53.6829691,54.1464104 C53.5693578,54.5731141 53.822983,55.0118264 54.2502254,55.1255073 C54.3190322,55.1439204 54.3886391,55.1535272 54.4566459,55.1535272 C54.810281,55.1535272 55.1335131,54.9165586 55.2295227,54.5579033 C56.4584447,49.9434191 56.9288914,45.1888351 56.6288616,40.4262455 C56.6016589,39.9851315 56.2312221,39.6496928 55.7799773,39.6777127 M34.4010543,20.1638243 C26.9883181,21.6592886 21.3613593,27.4418042 20.0660307,34.8951089 C19.9908232,35.3306188 20.2820522,35.745314 20.7172954,35.8213681 C21.1581392,35.8966217 21.5669798,35.6044137 21.6429873,35.1697043 C22.8239046,28.3712657 27.9564143,23.0979125 34.7178857,21.7329411 C43.6883765,19.9260551 52.4556472,25.7534025 54.2630267,34.7277898 C54.2678272,34.753408 54.2742278,34.7774251 54.2814285,34.8014422 C54.4262429,35.527559 54.5510553,36.2464706 54.6526654,36.9397641 C54.7110712,37.3376473 55.0527051,37.6234507 55.4431439,37.6234507 C55.4823478,37.6234507 55.5215517,37.621049 55.5607555,37.6146444 C55.9975989,37.5505988 56.300029,37.1439094 56.2360226,36.7067983 C56.1272118,35.9630689 55.9919984,35.1913197 55.8359829,34.4123653 C55.8303823,34.386747 55.8239817,34.3603282 55.8159809,34.3355106 C53.7997807,24.5381376 44.2092283,18.1856163 34.4010543,20.1638243 M21.7397969,41.2892597 C21.7317961,41.2516329 21.7213951,41.2156073 21.7085938,41.1795817 C21.5469778,40.3485902 21.448568,39.5039891 21.4133645,38.6665931 C21.3957627,38.2246786 21.0181252,37.8844364 20.5812819,37.8996473 C20.139638,37.9172598 19.7964039,38.2903253 19.8148057,38.7322398 C19.8548097,39.6913224 19.9716213,40.6584107 20.1620402,41.6078865 C20.1692409,41.6447127 20.179642,41.6807383 20.1924433,41.7159634 C20.7140951,44.5091514 19.6979941,47.3751912 17.5233782,49.2181028 C17.1865447,49.5047068 17.1441405,50.0098664 17.4297689,50.3469062 C17.5889847,50.5342396 17.813807,50.6303079 18.0410296,50.6303079 C18.2242478,50.6303079 18.407466,50.5678635 18.5578809,50.4397723 C21.2053438,48.1957752 22.4246649,44.6892796 21.7397969,41.2892597 M49.0489089,52.128174 C48.6192662,52.0120914 48.1832229,52.2666726 48.0696116,52.6941768 C47.4599511,54.9701967 46.6286685,57.1981824 45.596566,59.3164901 C45.4029468,59.7143733 45.5685633,60.193114 45.9654027,60.3868519 C46.079014,60.4420912 46.1974257,60.4677094 46.3158375,60.4677094 C46.6118669,60.4677094 46.8966952,60.3027921 47.0351089,60.0177892 C48.1120158,57.807416 48.979302,55.4825614 49.6145651,53.1080714 C49.7297765,52.6813677 49.4761513,52.2418549 49.0489089,52.128174 M50.1546187,35.5571801 C49.5001537,32.3068667 47.619967,29.5072742 44.8604929,27.6731688 C42.1010189,25.8382629 38.7934905,25.1906019 35.545968,25.8446675 C28.8429023,27.1968298 24.4880698,33.7550975 25.8402041,40.4622711 C25.8498051,40.5095047 25.8634064,40.5543367 25.8802081,40.5975674 C26.1370336,41.9353195 26.1938392,43.2914847 26.0490248,44.6316386 C26.0018202,45.0711514 26.3194517,45.4658323 26.7594954,45.5138665 C27.1891381,45.5570972 27.5931782,45.2432739 27.6403829,44.8029605 C27.8067994,43.2530574 27.7331921,41.6855418 27.4219612,40.1428438 C27.4123602,40.0964107 27.3987589,40.0515788 27.3819572,40.0091486 C26.2906488,34.2146245 30.0694241,28.5834167 35.8619993,27.4145848 C38.6902802,26.8437785 41.5721664,27.4089808 43.974805,29.0069181 C46.3638422,30.5952486 47.9960043,33.0145704 48.5760619,35.8237698 C48.5784622,35.8405818 48.5808624,35.8581943 48.5840627,35.8750063 C49.4737511,40.2853452 49.5569593,44.7557269 48.8320873,49.1596612 C48.7608803,49.5967724 49.0561096,50.0082652 49.4921529,50.0803165 C49.5361573,50.0867211 49.5793616,50.0907239 49.6225658,50.0907239 C50.0074041,50.0907239 50.3466378,49.8121256 50.4114442,49.4198464 C51.164319,44.8405873 51.0811107,40.1948808 50.1634196,35.6100177 C50.1610193,35.5924051 50.1586191,35.5747926 50.1546187,35.5571801 M26.2370435,47.6649975 C25.8250026,47.5048835 25.3609565,47.7090288 25.2009406,48.1213222 C24.3432555,50.3316954 22.9215143,52.2930914 21.0909325,53.7933592 C20.7492986,54.072758 20.6988935,54.5779175 20.9789214,54.9197608 C21.1373371,55.1126982 21.3669599,55.2127694 21.5981829,55.2127694 C21.7766006,55.2127694 21.9566184,55.1535272 22.1054332,55.0318406 C24.1480361,53.3570486 25.7345936,51.1682908 26.6930888,48.7009348 C26.8531047,48.2894419 26.6482844,47.8251114 26.2370435,47.6649975 M44.2084282,45.99661 C43.7723849,45.9469747 43.3723452,46.2615986 43.3227402,46.7011114 C42.7514835,51.7070743 40.9385035,56.5649317 38.0782194,60.7479089 C37.8285946,61.1121681 37.9214038,61.6101225 38.2862401,61.8599003 C38.4246538,61.9551681 38.5814694,62 38.7374849,62 C38.9927102,62 39.2439352,61.8783134 39.3983505,61.6517521 C42.4058492,57.2542223 44.3124385,52.1473877 44.9124981,46.8828408 C44.962103,46.443328 44.6468717,46.0462454 44.2084282,45.99661 M44.4764548,36.7019949 C44.1276202,34.9703624 43.1259207,33.4781003 41.6553747,32.5006046 C40.1848286,31.5223084 38.4214535,31.1780634 36.6916817,31.5255106 C34.0938237,32.0498838 32.0664224,34.064918 31.5255687,36.6595647 C31.4351597,37.0926729 31.7127873,37.5169749 32.1448302,37.6074393 C32.5792733,37.6971031 33.0017153,37.420106 33.0921243,36.9869977 C33.501765,35.0199977 35.0387176,33.4925106 37.0077131,33.095428 C38.3198434,32.8320405 39.655176,33.0930263 40.7696867,33.8335533 C41.8577948,34.5572684 42.6066691,35.6524479 42.887497,36.9253538 C42.8906973,36.9573766 42.8946977,36.9893994 42.9010984,37.0214222 C43.3067386,39.0300518 43.5147593,41.080311 43.5203599,43.1145588 C43.52196,43.5564733 43.8795955,43.9135275 44.3204393,43.9135275 L44.3220395,43.9135275 C44.7644834,43.9127269 45.1221189,43.5532711 45.1205188,43.1113565 C45.1149182,41.005858 44.9028972,38.8843481 44.4900562,36.8052684 C44.4876559,36.7708439 44.4828554,36.7364194 44.4764548,36.7019949 M33.3337483,40.3541942 C33.2753425,39.915482 32.8689021,39.606462 32.4336589,39.6689065 C31.9960154,39.7273481 31.689585,40.1308352 31.7487909,40.5695475 C32.5944749,46.8123906 30.3430513,53.1192794 25.7273929,57.4399545 C25.4049609,57.7417693 25.3881592,58.24853 25.6905893,58.5719602 C25.8474048,58.7400798 26.060226,58.8249402 26.2746473,58.8249402 C26.4706667,58.8249402 26.6666862,58.7536895 26.8211015,58.6087864 C31.8143974,53.9342594 34.2490392,47.1102026 33.3337483,40.3541942 M38.7870898,37.8508125 C38.6998812,37.4177042 38.2782393,37.139106 37.8445962,37.2239664 C37.4117532,37.3112285 37.1309253,37.7339293 37.218134,38.1670376 C38.7926904,45.9813992 36.6756801,53.9014361 31.4103573,59.8977037 C31.1191283,60.2299402 31.1519316,60.7359003 31.4831645,61.0281083 C31.6351796,61.1610029 31.8239983,61.2266496 32.0112169,61.2266496 C32.233639,61.2266496 32.4544609,61.1353846 32.6128767,60.9552564 C38.2102325,54.5795187 40.460856,46.1591257 38.7870898,37.8508125 M16.0664335,42.4364762 C16.0624331,42.4172625 16.0496318,42.4028523 16.0440313,42.3836386 C15.0479324,37.3816786 15.7448016,32.3444935 18.0634318,27.812468 C18.2650518,27.4193882 18.1098364,26.9366446 17.7161973,26.7349011 C17.3225583,26.5323569 16.8409104,26.6892686 16.6392904,27.0831489 C14.1454427,31.9562172 13.3997687,37.375274 14.4838764,42.7535018 C14.490277,42.7831229 14.5070787,42.80714 14.5158795,42.83516 C14.580686,43.151385 14.6494928,43.4644078 14.7255003,43.7750289 C14.8159093,44.1400887 15.1423417,44.3834619 15.5023775,44.3834619 C15.5655838,44.3834619 15.6295901,44.3762568 15.6943966,44.361046 C16.1232392,44.2545702 16.3856652,43.8206614 16.2800547,43.391556 C16.202447,43.076932 16.1304399,42.7583053 16.0664335,42.4364762 M61.5221476,33.2635476 C61.5173471,33.2395305 61.5013455,33.2211174 61.4941448,33.1971003 C60.2620224,27.1680093 56.81448,21.9018613 51.77878,18.3657445 C51.4171441,18.1103628 50.9170944,18.199226 50.6642693,18.5610836 C50.4106441,18.9229411 50.4978528,19.4224967 50.8594887,19.6762773 C55.5767571,22.989035 58.8018774,27.92775 59.9411906,33.5821744 C59.9451909,33.6037898 59.9579922,33.6206018 59.9635928,33.6414166 C60.2804242,35.2345504 60.4260387,36.8557043 60.3956357,38.4616472 C60.3876349,38.9035618 60.7388698,39.2686216 61.1805136,39.2774278 L61.1965152,39.2774278 C61.6309584,39.2774278 61.9877938,38.9283794 61.9957946,38.4920689 C62.0285978,36.7484279 61.869382,34.9903767 61.5221476,33.2635476 M18.800305,24.9744481 C18.4434696,24.7142629 18.3650618,24.2131062 18.6258877,23.8560521 C22.1678394,18.9997958 27.3635554,15.6710267 33.2569406,14.4821805 C38.4862599,13.4278301 43.7755852,14.1099156 48.5512595,16.4563856 C48.9480989,16.6509241 49.1121152,17.1304654 48.9168958,17.527548 C48.7232765,17.92383 48.2440289,18.089548 47.8463895,17.8934084 C43.3891468,15.70385 38.4526566,15.0665965 33.572972,16.0520979 C28.0732259,17.1616876 23.2239443,20.2678983 19.918016,24.7999239 C19.7612004,25.0152772 19.5179763,25.1289581 19.2715518,25.1289581 C19.1075355,25.1289581 18.9427191,25.0785222 18.800305,24.9744481" id="fingerprint" fill="#FFFFFF"></path>
                    </g>
                </g>
            </g>
        </g>
    </g>
</svg>