<?xml version="1.0" encoding="UTF-8"?>
<svg width="32px" height="32px" viewBox="0 0 32 32" version="1.1" xmlns="http://www.w3.org/2000/svg" xmlns:xlink="http://www.w3.org/1999/xlink">
    <!-- Generator: sketchtool 53.2 (72643) - https://sketchapp.com -->
    <title>94B00653-DD96-42DE-91A0-6FB0B0E75E1C@3x</title>
    <desc>Created with sketchtool.</desc>
    <g id="About" stroke="none" stroke-width="1" fill="none" fill-rule="evenodd">
        <g id="About-" transform="translate(-458.000000, -2340.000000)" fill="#2883F1">
            <g id="Checkmark" transform="translate(458.000000, 2340.000000)">
                <path d="M16,32 C7.163444,32 0,24.836556 0,16 C0,7.163444 7.163444,0 16,0 C24.836556,0 32,7.163444 32,16 C32,24.836556 24.836556,32 16,32 Z M8.49333647,17.1148866 C7.90205547,16.4582025 6.89037987,16.4051829 6.23369578,16.9964639 C5.5770117,17.5877449 5.52399202,18.5994205 6.11527303,19.2561046 L9.99647763,23.566619 C10.6463174,24.2883392 11.7937972,24.3699472 12.5399229,23.6981326 L25.7663042,11.7890454 C26.4229883,11.1977644 26.476008,10.1860888 25.884727,9.52940467 C25.293446,8.87272059 24.2817704,8.81970092 23.6250863,9.41098192 L11.4375111,20.3847239 L8.49333647,17.1148866 Z" id="Combined-Shape"></path>
            </g>
        </g>
    </g>
</svg>