<?xml version="1.0" encoding="UTF-8"?>
<svg width="76px" height="76px" viewBox="0 0 76 76" version="1.1" xmlns="http://www.w3.org/2000/svg" xmlns:xlink="http://www.w3.org/1999/xlink">
    <!-- Generator: sketchtool 53.2 (72643) - https://sketchapp.com -->
    <title>83625257-FD97-4659-AD64-7192DDCFAEBB@3x</title>
    <desc>Created with sketchtool.</desc>
    <g id="Home" stroke="none" stroke-width="1" fill="none" fill-rule="evenodd">
        <g transform="translate(-902.000000, -3865.000000)" id="Group-24">
            <g transform="translate(858.000000, 3865.000000)">
                <g id="Icons/Services/DevOps" transform="translate(44.000000, 0.000000)">
                    <g>
                        <rect id="Rectangle-Copy-12" fill="#007AFF" x="0" y="0" width="76" height="76" rx="20"></rect>
                        <path d="M38,52.4 C38.8824,52.4 39.6,51.6824 39.6,50.8 C39.6,49.9176 38.8824,49.2 38,49.2 C37.1176,49.2 36.4,49.9176 36.4,50.8 C36.4,51.6824 37.1176,52.4 38,52.4 L38,52.4 Z M38,54 C36.2352,54 34.8,52.5648 34.8,50.8 C34.8,49.0352 36.2352,47.6 38,47.6 C39.7648,47.6 41.2,49.0352 41.2,50.8 C41.2,52.5648 39.7648,54 38,54 L38,54 Z M38,57.2 C41.5288,57.2 44.4,54.3288 44.4,50.8 C44.4,47.2712 41.5288,44.4 38,44.4 C34.4712,44.4 31.6,47.2712 31.6,50.8 C31.6,54.3288 34.4712,57.2 38,57.2 L38,57.2 Z M38,58.8 C33.5888,58.8 30,55.2112 30,50.8 C30,46.3888 33.5888,42.8 38,42.8 C42.4112,42.8 46,46.3888 46,50.8 C46,55.2112 42.4112,58.8 38,58.8 L38,58.8 Z M58,14 L18,14 C15.7944,14 14,15.7944 14,18 L14,22.8 C14,23.2416 14.3584,23.6 14.8,23.6 L58,23.6 C58.4416,23.6 58.8,23.2416 58.8,22.8 C58.8,22.3584 58.4416,22 58,22 L15.6,22 L15.6,18 C15.6,16.6768 16.6768,15.6 18,15.6 L58,15.6 C59.3232,15.6 60.4,16.6768 60.4,18 L60.4,58 C60.4,59.368 59.368,60.4 58,60.4 L52,60.4 L50.2144,58.0184 C50.9552,57.0224 51.4832,55.848 51.7872,54.8904 C52.8968,54.652 53.9232,54.432 54.1616,54.3832 C55.0632,54.1976 55.6008,53.456 55.6008,52.3992 C55.6,51.7992 55.6,49.7832 55.6008,49.1984 C55.5992,48.1504 55.064,47.4096 54.1688,47.2168 L51.7928,46.708 C51.5072,45.744 51.1224,44.816 50.6456,43.9368 C51.2608,42.9856 51.8288,42.108 51.9624,41.9056 C52.468,41.1368 52.324,40.2328 51.5768,39.4856 L49.3136,37.2224 C48.5712,36.4816 47.6696,36.336 46.8984,36.8336 L44.8608,38.1528 C43.9816,37.676 43.0528,37.2912 42.0888,37.0064 C41.8512,35.9 41.6328,34.8768 41.5832,34.6384 C41.3984,33.7376 40.656,33.2 39.6,33.2 L36.4,33.2 C35.3512,33.2 34.6104,33.7352 34.4176,34.632 L33.9088,37.0072 C32.9448,37.2928 32.016,37.6768 31.1368,38.1544 C30.1864,37.54 29.3088,36.972 29.1056,36.8376 C28.3384,36.3336 27.4336,36.4768 26.6864,37.224 L24.4232,39.4864 C23.6824,40.2272 23.5368,41.1296 24.0344,41.9008 L25.3536,43.9384 C24.876,44.8168 24.492,45.7464 24.2064,46.7104 C23.1,46.948 22.076,47.1672 21.8376,47.2168 C20.9376,47.4032 20.4,48.1448 20.4,49.2008 L20.4,52.4 C20.4,53.448 20.9352,54.1888 21.832,54.3824 L24.2128,54.892 C24.64,56.2456 25.3944,57.6344 26.2056,58.5352 C26.5008,58.864 27.0064,58.8896 27.3352,58.5944 C27.664,58.2992 27.6904,57.7936 27.3944,57.4648 C26.544,56.5192 25.892,55.048 25.6232,54.0096 C25.5472,53.7168 25.312,53.4912 25.016,53.428 L22.168,52.8176 C22.1096,52.8048 22,52.7816 22,52.4 L22,49.2 C22,48.8168 22.1176,48.792 22.1608,48.7832 C22.4336,48.7272 23.7344,48.4488 25.016,48.1728 C25.312,48.1096 25.5472,47.884 25.6224,47.5912 C25.9208,46.4368 26.3768,45.3352 26.9776,44.3168 C27.1312,44.056 27.1248,43.7312 26.96,43.4768 L25.3784,41.032 C25.3456,40.9816 25.2848,40.8872 25.5544,40.6176 L27.8176,38.3544 C28.0872,38.0848 28.188,38.1496 28.2264,38.1744 C28.4584,38.3272 29.5752,39.0496 30.6752,39.7608 C30.9296,39.9248 31.256,39.9328 31.516,39.7784 C32.5344,39.1776 33.636,38.7216 34.7896,38.4232 C35.0832,38.3472 35.308,38.112 35.372,37.816 L35.9824,34.9672 C35.9952,34.9088 36.0184,34.8 36.4,34.8 L39.6,34.8 C39.9832,34.8 40.0072,34.9168 40.0168,34.9608 C40.072,35.2336 40.3512,36.5344 40.6264,37.816 C40.6896,38.112 40.9152,38.3472 41.208,38.4224 C42.3624,38.7208 43.464,39.1768 44.4824,39.7768 C44.7432,39.9312 45.0688,39.924 45.3232,39.7592 L47.7664,38.1776 C47.8168,38.1456 47.9128,38.0832 48.1824,38.3536 L50.4464,40.6168 C50.7168,40.888 50.6504,40.988 50.6256,41.0264 C50.4728,41.2584 49.7504,42.3752 49.0384,43.4752 C48.8744,43.7296 48.8672,44.0544 49.0216,44.316 C49.6224,45.3336 50.0784,46.4352 50.3768,47.5888 C50.4528,47.8824 50.6872,48.1072 50.9832,48.1712 L53.832,48.7816 C53.8904,48.7944 54,48.8176 54.0008,49.1984 C54,49.7816 54,51.8008 54.0008,52.4 C54.0008,52.7824 53.8832,52.8072 53.8384,52.816 C53.5664,52.872 52.2656,53.1512 50.984,53.4264 C50.688,53.4896 50.4528,53.7152 50.3776,54.008 C50.0536,55.2592 49.3568,56.6176 48.6016,57.4688 C48.3496,57.7536 48.332,58.176 48.56,58.48 L50.96,61.68 C51.1112,61.8816 51.348,62 51.6,62 L58,62 C60.2432,62 62,60.2432 62,58 L62,18 C62,15.7944 60.2056,14 58,14 L58,14 Z M43.6,28.4 C44.0416,28.4 44.4,28.0416 44.4,27.6 C44.4,27.1584 44.0416,26.8 43.6,26.8 L40.4,26.8 C39.9584,26.8 39.6,27.1584 39.6,27.6 C39.6,28.0416 39.9584,28.4 40.4,28.4 L43.6,28.4 Z M56.4,28.4 C56.8416,28.4 57.2,28.0416 57.2,27.6 C57.2,27.1584 56.8416,26.8 56.4,26.8 L53.2,26.8 C52.7584,26.8 52.4,27.1584 52.4,27.6 C52.4,28.0416 52.7584,28.4 53.2,28.4 L56.4,28.4 Z M50,28.4 C50.4416,28.4 50.8,28.0416 50.8,27.6 C50.8,27.1584 50.4416,26.8 50,26.8 L46.8,26.8 C46.3584,26.8 46,27.1584 46,27.6 C46,28.0416 46.3584,28.4 46.8,28.4 L50,28.4 Z M26,28.4 C26.4416,28.4 26.8,28.0416 26.8,27.6 C26.8,27.1584 26.4416,26.8 26,26.8 L19.6,26.8 C19.1584,26.8 18.8,27.1584 18.8,27.6 C18.8,28.0416 19.1584,28.4 19.6,28.4 L26,28.4 Z M28.4,18.8 C28.4,19.6824 29.1176,20.4 30,20.4 C30.8824,20.4 31.6,19.6824 31.6,18.8 C31.6,17.9176 30.8824,17.2 30,17.2 C29.1176,17.2 28.4,17.9176 28.4,18.8 L28.4,18.8 Z M23.6,18.8 C23.6,19.6824 24.3176,20.4 25.2,20.4 C26.0824,20.4 26.8,19.6824 26.8,18.8 C26.8,17.9176 26.0824,17.2 25.2,17.2 C24.3176,17.2 23.6,17.9176 23.6,18.8 L23.6,18.8 Z M18.8,18.8 C18.8,19.6824 19.5176,20.4 20.4,20.4 C21.2824,20.4 22,19.6824 22,18.8 C22,17.9176 21.2824,17.2 20.4,17.2 C19.5176,17.2 18.8,17.9176 18.8,18.8 L18.8,18.8 Z M48.4,61.2 C48.4,61.6416 48.0416,62 47.6,62 L18,62 C15.7568,62 14,60.2432 14,58 L14,26 C14,25.5584 14.3584,25.2 14.8,25.2 C15.2416,25.2 15.6,25.5584 15.6,26 L15.6,58 C15.6,59.368 16.632,60.4 18,60.4 L47.6,60.4 C48.0416,60.4 48.4,60.7584 48.4,61.2 L48.4,61.2 Z" id="website-fix" fill="#FFFFFF"></path>
                    </g>
                </g>
            </g>
        </g>
    </g>
</svg>