<?xml version="1.0" encoding="UTF-8"?>
<svg width="76px" height="76px" viewBox="0 0 76 76" version="1.1" xmlns="http://www.w3.org/2000/svg" xmlns:xlink="http://www.w3.org/1999/xlink">
    <!-- Generator: sketchtool 53.2 (72643) - https://sketchapp.com -->
    <title>6F5B079C-56B0-4525-978E-8223E038B43F@3x</title>
    <desc>Created with sketchtool.</desc>
    <g id="Home" stroke="none" stroke-width="1" fill="none" fill-rule="evenodd">
        <g transform="translate(-902.000000, -3604.000000)" id="Group-21">
            <g transform="translate(858.000000, 3604.000000)">
                <g id="Group-11">
                    <g id="Icons/Services/Enterprise" transform="translate(44.000000, 0.000000)">
                        <g>
                            <rect id="Rectangle-Copy-8" fill="#FC5830" x="0" y="0" width="76" height="76" rx="20"></rect>
                            <path d="M58.8,31.6 L58.8,34.8 L61.2,34.8 C61.6424,34.8 62,35.1584 62,35.6 C62,36.0416 61.6424,36.4 61.2,36.4 L58.8,36.4 L58.8,39.6 L61.2,39.6 C61.6424,39.6 62,39.9584 62,40.4 C62,40.8416 61.6424,41.2 61.2,41.2 L58.8,41.2 L58.8,44.4 L61.2,44.4 C61.6424,44.4 62,44.7584 62,45.2 C62,45.6416 61.6424,46 61.2,46 L58.8,46 L58.8,49.2 L61.2,49.2 C61.6424,49.2 62,49.5584 62,50 C62,50.4416 61.6424,50.8 61.2,50.8 L58.8,50.8 L58.8,54.8 C58.8,56.856 56.856,58.8 54.8,58.8 L50.8,58.8 L50.8,61.2 C50.8,61.6416 50.4424,62 50,62 C49.5576,62 49.2,61.6416 49.2,61.2 L49.2,58.8 L46,58.8 L46,61.2 C46,61.6416 45.6424,62 45.2,62 C44.7576,62 44.4,61.6416 44.4,61.2 L44.4,58.8 L41.2,58.8 L41.2,61.2 C41.2,61.6416 40.8424,62 40.4,62 C39.9576,62 39.6,61.6416 39.6,61.2 L39.6,58.8 L36.4,58.8 L36.4,61.2 C36.4,61.6416 36.0424,62 35.6,62 C35.1576,62 34.8,61.6416 34.8,61.2 L34.8,58.8 L31.6,58.8 L31.6,61.2 C31.6,61.6416 31.2424,62 30.8,62 C30.3576,62 30,61.6416 30,61.2 L30,58.8 L26.8,58.8 L26.8,61.2 C26.8,61.6416 26.4424,62 26,62 C25.5576,62 25.2,61.6416 25.2,61.2 L25.2,58.8 L21.2,58.8 C19.144,58.8 17.2,56.856 17.2,54.8 C17.2,54.3584 17.5576,54 18,54 C18.4424,54 18.8,54.3584 18.8,54.8 C18.8,55.9664 20.0336,57.2 21.2,57.2 L54.8,57.2 C55.9664,57.2 57.2,55.9664 57.2,54.8 L57.2,21.2 C57.2,20.0336 55.9664,18.8 54.8,18.8 L21.2,18.8 C20.0336,18.8 18.8,20.0336 18.8,21.2 L18.8,51.6 C18.8,52.0416 18.4424,52.4 18,52.4 C17.5576,52.4 17.2,52.0416 17.2,51.6 L17.2,50.8 L14.8,50.8 C14.3576,50.8 14,50.4416 14,50 C14,49.5584 14.3576,49.2 14.8,49.2 L17.2,49.2 L17.2,46 L14.8,46 C14.3576,46 14,45.6416 14,45.2 C14,44.7584 14.3576,44.4 14.8,44.4 L17.2,44.4 L17.2,41.2 L14.8,41.2 C14.3576,41.2 14,40.8416 14,40.4 C14,39.9584 14.3576,39.6 14.8,39.6 L17.2,39.6 L17.2,36.4 L14.8,36.4 C14.3576,36.4 14,36.0416 14,35.6 C14,35.1584 14.3576,34.8 14.8,34.8 L17.2,34.8 L17.2,31.6 L14.8,31.6 C14.3576,31.6 14,31.2416 14,30.8 C14,30.3584 14.3576,30 14.8,30 L17.2,30 L17.2,26.8 L14.8,26.8 C14.3576,26.8 14,26.4416 14,26 C14,25.5584 14.3576,25.2 14.8,25.2 L17.2,25.2 L17.2,21.2 C17.2,19.144 19.144,17.2 21.2,17.2 L25.2,17.2 L25.2,14.8 C25.2,14.3584 25.5576,14 26,14 C26.4424,14 26.8,14.3584 26.8,14.8 L26.8,17.2 L30,17.2 L30,14.8 C30,14.3584 30.3576,14 30.8,14 C31.2424,14 31.6,14.3584 31.6,14.8 L31.6,17.2 L34.8,17.2 L34.8,14.8 C34.8,14.3584 35.1576,14 35.6,14 C36.0424,14 36.4,14.3584 36.4,14.8 L36.4,17.2 L39.6,17.2 L39.6,14.8 C39.6,14.3584 39.9576,14 40.4,14 C40.8424,14 41.2,14.3584 41.2,14.8 L41.2,17.2 L44.4,17.2 L44.4,14.8 C44.4,14.3584 44.7576,14 45.2,14 C45.6424,14 46,14.3584 46,14.8 L46,17.2 L49.2,17.2 L49.2,14.8 C49.2,14.3584 49.5576,14 50,14 C50.4424,14 50.8,14.3584 50.8,14.8 L50.8,17.2 L54.8,17.2 C56.856,17.2 58.8,19.144 58.8,21.2 L58.8,25.2 L61.2,25.2 C61.6424,25.2 62,25.5584 62,26 C62,26.4416 61.6424,26.8 61.2,26.8 L58.8,26.8 L58.8,30 L61.2,30 C61.6424,30 62,30.3584 62,30.8 C62,31.2416 61.6424,31.6 61.2,31.6 L58.8,31.6 L58.8,31.6 Z M28.4,37.2 C28.4,36.8408 27.9584,36.4 27.6,36.4 C26.3664,36.4 25.2,35.2336 25.2,34 L25.2,27.6 C25.2,26.3664 26.3664,25.2 27.6,25.2 L48.4,25.2 C49.6336,25.2 50.8,26.3664 50.8,27.6 L50.8,40.4 C50.8,41.6336 49.6336,42.8 48.4,42.8 L45.852,42.8 C45.5208,43.7296 44.6416,44.4 43.6,44.4 C42.5584,44.4 41.6792,43.7296 41.348,42.8 L35.6,42.8 C34.3664,42.8 33.2,41.6336 33.2,40.4 L33.2,37.852 C32.2712,37.5208 31.6,36.6416 31.6,35.6 C31.6,34.2768 32.6768,33.2 34,33.2 C35.3232,33.2 36.4,34.2768 36.4,35.6 C36.4,36.6416 35.7288,37.5208 34.8,37.8528 L34.8,40.4 C34.8,40.7592 35.2416,41.2 35.6,41.2 L41.348,41.2 C41.5888,40.5224 42.1216,39.9888 42.8,39.7472 L42.8,34.652 C41.8712,34.3208 41.2,33.4416 41.2,32.4 C41.2,31.0768 42.2768,30 43.6,30 C44.9232,30 46,31.0768 46,32.4 C46,33.4416 45.3288,34.3208 44.4,34.6528 L44.4,39.7472 C45.0784,39.9888 45.6112,40.5224 45.852,41.2 L48.4,41.2 C48.7584,41.2 49.2,40.7592 49.2,40.4 L49.2,27.6 C49.2,27.2408 48.7584,26.8 48.4,26.8 L27.6,26.8 C27.2416,26.8 26.8,27.2408 26.8,27.6 L26.8,34 C26.8,34.3592 27.2416,34.8 27.6,34.8 C28.8336,34.8 30,35.9664 30,37.2 C30,38.4336 28.8336,39.6 27.6,39.6 C27.2416,39.6 26.8,40.0408 26.8,40.4 L26.8,48.4 C26.8,48.7592 27.2416,49.2 27.6,49.2 L29.2,49.2 C29.5584,49.2 30,48.7592 30,48.4 C30,47.1664 31.1656,46 32.3992,46 L35.6,46 C36.8336,46 38,47.1664 38,48.4 C38,48.7592 38.4416,49.2 38.8,49.2 L46.148,49.2 C46.4792,48.2704 47.3584,47.6 48.4,47.6 C49.7232,47.6 50.8,48.6768 50.8,50 C50.8,51.3232 49.7232,52.4 48.4,52.4 C47.3584,52.4 46.4792,51.7296 46.148,50.8 L38.8,50.8 C37.5664,50.8 36.4,49.6336 36.4,48.4 C36.4,48.0408 35.9584,47.6 35.6,47.6 L32.3992,47.6 C32.0408,47.6 31.6,48.0408 31.6,48.4 C31.6,49.6336 30.4336,50.8 29.2,50.8 L27.6,50.8 C26.3664,50.8 25.2,49.6336 25.2,48.4 L25.2,40.4 C25.2,39.1664 26.3664,38 27.6,38 C27.9584,38 28.4,37.5592 28.4,37.2 L28.4,37.2 Z M47.6,50 C47.6,50.4408 47.9584,50.8 48.4,50.8 C48.8416,50.8 49.2,50.4408 49.2,50 C49.2,49.5592 48.8416,49.2 48.4,49.2 C47.9584,49.2 47.6,49.5592 47.6,50 L47.6,50 Z M33.2,35.6 C33.2,36.0408 33.5584,36.4 34,36.4 C34.4416,36.4 34.8,36.0408 34.8,35.6 C34.8,35.1592 34.4416,34.8 34,34.8 C33.5584,34.8 33.2,35.1592 33.2,35.6 L33.2,35.6 Z M42.8,32.4 C42.8,32.8408 43.1584,33.2 43.6,33.2 C44.0416,33.2 44.4,32.8408 44.4,32.4 C44.4,31.9592 44.0416,31.6 43.6,31.6 C43.1584,31.6 42.8,31.9592 42.8,32.4 L42.8,32.4 Z M44.4,42 C44.4,41.5592 44.0416,41.2 43.6,41.2 C43.1584,41.2 42.8,41.5592 42.8,42 C42.8,42.4408 43.1584,42.8 43.6,42.8 C44.0416,42.8 44.4,42.4408 44.4,42 L44.4,42 Z M53.224,54 C53.6656,54 54.024,53.6416 54.024,53.2 C54.024,52.7584 53.6656,52.4 53.224,52.4 L53.2152,52.4 C52.7744,52.4 52.42,52.7584 52.42,53.2 C52.42,53.6416 52.7816,54 53.224,54 L53.224,54 Z M22.824,54 C23.2656,54 23.624,53.6416 23.624,53.2 C23.624,52.7584 23.2656,52.4 22.824,52.4 L22.8152,52.4 C22.3744,52.4 22.02,52.7584 22.02,53.2 C22.02,53.6416 22.3824,54 22.824,54 L22.824,54 Z M53.224,23.6 C53.6656,23.6 54.024,23.2416 54.024,22.8 C54.024,22.3584 53.6656,22 53.224,22 L53.2152,22 C52.7744,22 52.42,22.3584 52.42,22.8 C52.42,23.2416 52.7816,23.6 53.224,23.6 L53.224,23.6 Z M22.824,23.6 C23.2656,23.6 23.624,23.2416 23.624,22.8 C23.624,22.3584 23.2656,22 22.824,22 L22.8152,22 C22.3744,22 22.02,22.3584 22.02,22.8 C22.02,23.2416 22.3824,23.6 22.824,23.6 L22.824,23.6 Z" id="microchip" fill="#FFFFFF"></path>
                        </g>
                    </g>
                </g>
            </g>
        </g>
    </g>
</svg>