<?xml version="1.0" encoding="UTF-8"?>
<svg width="100px" height="100px" viewBox="0 0 100 100" version="1.1" xmlns="http://www.w3.org/2000/svg" xmlns:xlink="http://www.w3.org/1999/xlink">
    <!-- Generator: sketchtool 53.2 (72643) - https://sketchapp.com -->
    <title>6B1DA0EB-6BBC-4265-B6A1-376F0F0F7191@3x</title>
    <desc>Created with sketchtool.</desc>
    <g id="Home" stroke="none" stroke-width="1" fill="none" fill-rule="evenodd">
        <g transform="translate(-859.000000, -2274.000000)" fill="#2883F1" id="Group-27">
            <g transform="translate(858.000000, 2274.000000)">
                <g id="Icons/Fintech" transform="translate(1.000000, 0.000000)">
                    <g>
                        <path d="M27.9266667,43.5103475 C27.9233333,43.5153474 27.9233333,43.5186808 27.92,43.5236807 C27.165,45.220337 26.6666667,47.4403233 26.6666667,50.0003076 C26.6666667,55.8936046 29.3016667,60.000246 31.6666667,60.000246 C34.0316667,60.000246 36.6666667,55.8936046 36.6666667,50.0003076 C36.6666667,44.1070105 34.0316667,40.0003691 31.6666667,40.0003691 C30.3316667,40.0003691 28.9116667,41.310361 27.9266667,43.5103475 L27.9266667,43.5103475 Z M23.4016667,48.3336511 C23.5383333,46.5086624 23.8966667,44.8103395 24.435,43.3020154 L24.0216667,42.8886846 C23.37,42.2386886 23.37,41.1836951 24.0216667,40.5320325 C24.545,40.0087023 25.3183333,39.9270362 25.9433333,40.2437009 C27.0483333,38.5903777 28.4383333,37.415385 30,36.925388 L30,36.6670562 C30,35.7470619 30.745,35.0003998 31.6666667,35.0003998 C32.5883333,35.0003998 33.3333333,35.7470619 33.3333333,36.6670562 L33.3333333,36.925388 C34.9083333,37.4187183 36.305,38.6053776 37.4116667,40.2787007 C38.0466667,39.9270362 38.8516667,39.9937024 39.3883333,40.5320325 C40.0383333,41.1836951 40.0383333,42.2386886 39.3883333,42.8903513 L38.92,43.3586817 C39.4466667,44.8520059 39.7966667,46.5303289 39.9316667,48.3336511 L40,48.3336511 C40.9216667,48.3336511 41.6666667,49.0803132 41.6666667,50.0003076 C41.6666667,50.9203019 40.9216667,51.666964 40,51.666964 L39.9316667,51.666964 C39.795,53.4819528 39.44,55.1736091 38.9083333,56.6735998 L39.3883333,57.1552635 C40.0383333,57.8069262 40.0383333,58.8619197 39.3883333,59.5135824 C39.0633333,59.8369137 38.6366667,60.000246 38.21,60.000246 C37.9233333,60.000246 37.6483333,59.89858 37.3933333,59.7519142 C36.2883333,61.4085707 34.8983333,62.5852301 33.3333333,63.0752271 L33.3333333,63.3335589 C33.3333333,64.2535532 32.5883333,65.0002153 31.6666667,65.0002153 C30.745,65.0002153 30,64.2535532 30,63.3335589 L30,63.0752271 C28.4466667,62.5885635 27.065,61.4235706 25.965,59.786914 C25.7233333,59.9135799 25.4666667,60.000246 25.2,60.000246 C24.7733333,60.000246 24.345,59.8369137 24.02,59.5119157 C23.37,58.8602531 23.37,57.8052595 24.0216667,57.1535969 L24.4466667,56.7302662 C23.9033333,55.2136088 23.54,53.505286 23.4016667,51.666964 L23.3333333,51.666964 C22.4116667,51.666964 21.6666667,50.9203019 21.6666667,50.0003076 C21.6666667,49.0803132 22.4116667,48.3336511 23.3333333,48.3336511 L23.4016667,48.3336511 Z M53.3333333,91.6667179 L53.3333333,8.33389718 C53.3333333,7.41390283 52.5883333,6.66724076 51.6666667,6.66724076 C50.745,6.66724076 50,7.41390283 50,8.33389718 L50,91.6667179 C50,92.5867123 50.745,93.3333743 51.6666667,93.3333743 C52.5883333,93.3333743 53.3333333,92.5867123 53.3333333,91.6667179 L53.3333333,91.6667179 Z M31.6666667,53.3336204 C32.5883333,53.3336204 33.3333333,52.5869583 33.3333333,51.666964 L33.3333333,48.3336511 C33.3333333,47.4136568 32.5883333,46.6669947 31.6666667,46.6669947 C30.745,46.6669947 30,47.4136568 30,48.3336511 L30,51.666964 C30,52.5869583 30.745,53.3336204 31.6666667,53.3336204 L31.6666667,53.3336204 Z M63.3333333,88.3334051 C63.3333333,89.2533994 64.0783333,90.0000615 65,90.0000615 L88.3333333,90.0000615 C89.255,90.0000615 90,89.2533994 90,88.3334051 L90,11.66721 C90,10.7472157 89.255,10.0005536 88.3333333,10.0005536 L65,10.0005536 C64.0783333,10.0005536 63.3333333,10.7472157 63.3333333,11.66721 C63.3333333,12.5872043 64.0783333,13.3338664 65,13.3338664 L86.6666667,13.3338664 L86.6666667,86.6667487 L65,86.6667487 C64.0783333,86.6667487 63.3333333,87.4134108 63.3333333,88.3334051 L63.3333333,88.3334051 Z M13.3333333,66.6668717 L10,66.6668717 L10,76.6668102 L13.3333333,76.6668102 L13.3333333,66.6668717 Z M13.3333333,41.6670255 L13.3333333,63.3335589 L15,63.3335589 C15.9216667,63.3335589 16.6666667,64.0802209 16.6666667,65.0002153 L16.6666667,78.3334666 C16.6666667,79.2534609 15.9216667,80.000123 15,80.000123 L8.33333333,80.000123 C7.41166667,80.000123 6.66666667,79.2534609 6.66666667,78.3334666 L6.66666667,65.0002153 C6.66666667,64.0802209 7.41166667,63.3335589 8.33333333,63.3335589 L10,63.3335589 L10,41.6670255 C10,40.7470311 10.745,40.0003691 11.6666667,40.0003691 C12.5883333,40.0003691 13.3333333,40.7470311 13.3333333,41.6670255 L13.3333333,41.6670255 Z M13.3333333,23.3338049 L10,23.3338049 L10,33.3337434 L13.3333333,33.3337434 L13.3333333,23.3338049 Z M60,5.00058435 L60,95.0000308 C60,95.6316935 59.6433333,96.2083567 59.0783333,96.4916882 L52.4116667,99.8250011 C52.18,99.9400004 51.9233333,100 51.6666667,100 C51.5316667,100 51.3966667,99.9833334 51.2633333,99.9500003 L11.2633333,89.9500618 C11.2166667,89.9400619 11.1883333,89.9083954 11.145,89.8950622 C11.035,89.8583957 10.94,89.808396 10.8433333,89.750063 C10.75,89.69673 10.6633333,89.6450637 10.585,89.5767308 C10.505,89.5067312 10.4416667,89.4283984 10.375,89.3433989 C10.31,89.2583994 10.2466667,89.1767332 10.1983333,89.0800672 C10.15,88.9884011 10.1216667,88.891735 10.0933333,88.7917356 C10.06,88.6817363 10.035,88.5750703 10.0266667,88.460071 C10.0233333,88.4150713 10,88.3784048 10,88.3334051 L10,85.0000923 C10,84.0800979 10.745,83.3334359 11.6666667,83.3334359 C12.5883333,83.3334359 13.3333333,84.0800979 13.3333333,85.0000923 L13.3333333,87.0317464 L51.4733333,96.5666878 L56.6666667,93.9700371 L56.6666667,6.03057801 L51.4733333,3.43392732 L13.3333333,12.9688687 L13.3333333,20.0004921 L15,20.0004921 C15.9216667,20.0004921 16.6666667,20.7471542 16.6666667,21.6671485 L16.6666667,35.0003998 C16.6666667,35.9203942 15.9216667,36.6670562 15,36.6670562 L8.33333333,36.6670562 C7.41166667,36.6670562 6.66666667,35.9203942 6.66666667,35.0003998 L6.66666667,21.6671485 C6.66666667,20.7471542 7.41166667,20.0004921 8.33333333,20.0004921 L10,20.0004921 L10,11.66721 C10,10.9022147 10.52,10.2355521 11.2633333,10.0505533 L51.2633333,0.0506147934 C51.6483333,-0.0477179351 52.055,-0.0010515555 52.4116667,0.175614024 L59.0783333,3.50892685 C59.6433333,3.79225845 60,4.36892156 60,5.00058435 L60,5.00058435 Z M91.6666667,0.000615100914 L65,0.000615100914 C64.0783333,0.000615100914 63.3333333,0.747277175 63.3333333,1.66727152 C63.3333333,2.58726586 64.0783333,3.33392793 65,3.33392793 L91.6666667,3.33392793 C94.4233333,3.33392793 96.6666667,5.57724747 96.6666667,8.33389718 L96.6666667,91.6667179 C96.6666667,94.4233676 94.4233333,96.6666872 91.6666667,96.6666872 L65,96.6666872 C64.0783333,96.6666872 63.3333333,97.4133492 63.3333333,98.3333436 C63.3333333,99.2533379 64.0783333,100 65,100 L91.6666667,100 C96.2616667,100 100,96.2616897 100,91.6667179 L100,8.33389718 C100,3.73892544 96.2616667,0.000615100914 91.6666667,0.000615100914 L91.6666667,0.000615100914 Z M30,98.3333436 C30,99.2533379 29.255,100 28.3333333,100 L8.33333333,100 C3.73833333,100 0,96.2616897 0,91.6667179 L0,8.33389718 C0,3.73892544 3.73833333,0.000615100914 8.33333333,0.000615100914 L28.3333333,0.000615100914 C29.255,0.000615100914 30,0.747277175 30,1.66727152 C30,2.58726586 29.255,3.33392793 28.3333333,3.33392793 L8.33333333,3.33392793 C5.57666667,3.33392793 3.33333333,5.57724747 3.33333333,8.33389718 L3.33333333,91.6667179 C3.33333333,94.4233676 5.57666667,96.6666872 8.33333333,96.6666872 L28.3333333,96.6666872 C29.255,96.6666872 30,97.4133492 30,98.3333436 L30,98.3333436 Z" id="safe-opened"></path>
                        <path d="M37.6666667,60 L49.3333333,60 C50.255,60 51,59.328 51,58.5 C51,57.672 50.255,57 49.3333333,57 L37.6666667,57 C36.745,57 36,57.672 36,58.5 C36,59.328 36.745,60 37.6666667,60 L37.6666667,60 Z" id="Path"></path>
                        <path d="M37.6666667,66 L49.3333333,66 C50.255,66 51,65.328 51,64.5 C51,63.672 50.255,63 49.3333333,63 L37.6666667,63 C36.745,63 36,63.672 36,64.5 C36,65.328 36.745,66 37.6666667,66 L37.6666667,66 Z" id="Path"></path>
                        <path d="M37.6666667,73 L49.3333333,73 C50.255,73 51,72.328 51,71.5 C51,70.672 50.255,70 49.3333333,70 L37.6666667,70 C36.745,70 36,70.672 36,71.5 C36,72.328 36.745,73 37.6666667,73 L37.6666667,73 Z" id="Path"></path>
                        <path d="M37.6666667,80 L49.3333333,80 C50.255,80 51,79.328 51,78.5 C51,77.672 50.255,77 49.3333333,77 L37.6666667,77 C36.745,77 36,77.672 36,78.5 C36,79.328 36.745,80 37.6666667,80 L37.6666667,80 Z" id="Path"></path>
                    </g>
                </g>
            </g>
        </g>
    </g>
</svg>