<?xml version="1.0" encoding="UTF-8"?>
<svg width="76px" height="76px" viewBox="0 0 76 76" version="1.1" xmlns="http://www.w3.org/2000/svg" xmlns:xlink="http://www.w3.org/1999/xlink">
    <!-- Generator: sketchtool 53.2 (72643) - https://sketchapp.com -->
    <title>B01A22A3-498F-48D6-9B7C-8B58E286D7A5@3x</title>
    <desc>Created with sketchtool.</desc>
    <g id="Home" stroke="none" stroke-width="1" fill="none" fill-rule="evenodd">
        <g transform="translate(-502.000000, -3865.000000)" id="Group-26">
            <g transform="translate(458.000000, 3865.000000)">
                <g id="Icons/Services/Implementation" transform="translate(44.000000, 0.000000)">
                    <g>
                        <rect id="Rectangle-Copy-10" fill="#BE42F4" x="0" y="0" width="76" height="76" rx="20"></rect>
                        <path d="M43.6,43.8 L16.4,43.8 C15.0768,43.8 14,44.8768 14,46.2 L14,60.6 C14,61.9232 15.0768,63 16.4,63 L43.6,63 C44.9232,63 46,61.9232 46,60.6 L46,46.2 C46,44.8768 44.9232,43.8 43.6,43.8 L43.6,43.8 Z M44.4,60.6 C44.4,61.0408 44.0408,61.4 43.6,61.4 L16.4,61.4 C15.9592,61.4 15.6,61.0408 15.6,60.6 L15.6,46.2 C15.6,45.7592 15.9592,45.4 16.4,45.4 L43.6,45.4 C44.0408,45.4 44.4,45.7592 44.4,46.2 L44.4,60.6 L44.4,60.6 Z M19.6,42.2 C20.9232,42.2 22,41.1232 22,39.8 L22,19 C22,18.8792 21.9688,18.7672 21.9208,18.6648 C21.9176,18.6576 21.9192,18.6496 21.9152,18.6424 L20.3152,15.4424 C20.0448,14.9 19.1552,14.9 18.884,15.4424 L17.284,18.6424 C17.2808,18.6496 17.2824,18.6576 17.2792,18.6648 C17.2312,18.7672 17.2,18.8792 17.2,19 L17.2,39.8 C17.2,41.1232 18.2768,42.2 19.6,42.2 L19.6,42.2 Z M18.8,19.8 L20.4,19.8 L20.4,37.4 L18.8,37.4 L18.8,19.8 Z M19.6,40.6 C19.1592,40.6 18.8,40.2408 18.8,39.8 L18.8,39 L20.4,39 L20.4,39.8 C20.4,40.2408 20.0408,40.6 19.6,40.6 L19.6,40.6 Z M19.9056,18.2 L19.2944,18.2 L19.6,17.5888 L19.9056,18.2 L19.9056,18.2 Z M62,17.4 L62,44.6 C62,45.0416 61.6416,45.4 61.2,45.4 C60.7584,45.4 60.4,45.0416 60.4,44.6 L60.4,17.4 C60.4,16.9592 60.0408,16.6 59.6,16.6 L29.2,16.6 C28.7592,16.6 28.4,16.9592 28.4,17.4 L28.4,41.4 C28.4,41.8416 28.0416,42.2 27.6,42.2 C27.1584,42.2 26.8,41.8416 26.8,41.4 L26.8,17.4 C26.8,16.0768 27.8768,15 29.2,15 L59.6,15 C60.9232,15 62,16.0768 62,17.4 L62,17.4 Z M36.4,27.8 C38.1648,27.8 39.6,26.3648 39.6,24.6 C39.6,22.8352 38.1648,21.4 36.4,21.4 C34.6352,21.4 33.2,22.8352 33.2,24.6 C33.2,26.3648 34.6352,27.8 36.4,27.8 L36.4,27.8 Z M36.4,23 C37.2824,23 38,23.7176 38,24.6 C38,25.4824 37.2824,26.2 36.4,26.2 C35.5176,26.2 34.8,25.4824 34.8,24.6 C34.8,23.7176 35.5176,23 36.4,23 L36.4,23 Z M22,48.6 C20.2352,48.6 18.8,50.0352 18.8,51.8 C18.8,53.5648 20.2352,55 22,55 C23.7648,55 25.2,53.5648 25.2,51.8 C25.2,50.0352 23.7648,48.6 22,48.6 L22,48.6 Z M22,53.4 C21.1176,53.4 20.4,52.6824 20.4,51.8 C20.4,50.9176 21.1176,50.2 22,50.2 C22.8824,50.2 23.6,50.9176 23.6,51.8 C23.6,52.6824 22.8824,53.4 22,53.4 L22,53.4 Z M46,22.2 C46,21.7584 46.3584,21.4 46.8,21.4 L53.2,21.4 C53.6416,21.4 54,21.7584 54,22.2 C54,22.6416 53.6416,23 53.2,23 L46.8,23 C46.3584,23 46,22.6416 46,22.2 L46,22.2 Z M46,25.4 C46,24.9584 46.3584,24.6 46.8,24.6 L54.8,24.6 C55.2416,24.6 55.6,24.9584 55.6,25.4 C55.6,25.8416 55.2416,26.2 54.8,26.2 L46.8,26.2 C46.3584,26.2 46,25.8416 46,25.4 L46,25.4 Z M33.2,33.4 C33.2,32.9584 33.5584,32.6 34,32.6 L40.4,32.6 C40.8416,32.6 41.2,32.9584 41.2,33.4 C41.2,33.8416 40.8416,34.2 40.4,34.2 L34,34.2 C33.5584,34.2 33.2,33.8416 33.2,33.4 L33.2,33.4 Z M33.2,38.2 C33.2,37.7584 33.5584,37.4 34,37.4 L45.2,37.4 C45.6416,37.4 46,37.7584 46,38.2 C46,38.6416 45.6416,39 45.2,39 L34,39 C33.5584,39 33.2,38.6416 33.2,38.2 L33.2,38.2 Z M33.2,41.4 C33.2,40.9584 33.5584,40.6 34,40.6 L40.4,40.6 C40.8416,40.6 41.2,40.9584 41.2,41.4 C41.2,41.8416 40.8416,42.2 40.4,42.2 L34,42.2 C33.5584,42.2 33.2,41.8416 33.2,41.4 L33.2,41.4 Z M55.6,38.2 C55.6,38.6416 55.2416,39 54.8,39 L48.4,39 C47.9584,39 47.6,38.6416 47.6,38.2 C47.6,37.7584 47.9584,37.4 48.4,37.4 L54.8,37.4 C55.2416,37.4 55.6,37.7584 55.6,38.2 L55.6,38.2 Z M43.6,40.6 L53.2,40.6 C53.6416,40.6 54,40.9584 54,41.4 C54,41.8416 53.6416,42.2 53.2,42.2 L43.6,42.2 C43.1584,42.2 42.8,41.8416 42.8,41.4 C42.8,40.9584 43.1584,40.6 43.6,40.6 L43.6,40.6 Z M28.4,49.4 C28.4,48.9584 28.7584,48.6 29.2,48.6 L34,48.6 C34.4416,48.6 34.8,48.9584 34.8,49.4 C34.8,49.8416 34.4416,50.2 34,50.2 L29.2,50.2 C28.7584,50.2 28.4,49.8416 28.4,49.4 L28.4,49.4 Z M28.4,52.6 C28.4,52.1584 28.7584,51.8 29.2,51.8 L35.6,51.8 C36.0416,51.8 36.4,52.1584 36.4,52.6 C36.4,53.0416 36.0416,53.4 35.6,53.4 L29.2,53.4 C28.7584,53.4 28.4,53.0416 28.4,52.6 L28.4,52.6 Z M41.2,57.4 C41.2,57.8416 40.8416,58.2 40.4,58.2 L29.2,58.2 C28.7584,58.2 28.4,57.8416 28.4,57.4 C28.4,56.9584 28.7584,56.6 29.2,56.6 L40.4,56.6 C40.8416,56.6 41.2,56.9584 41.2,57.4 L41.2,57.4 Z M59.6,47 L54.8,47 C53.4768,47 52.4,48.0768 52.4,49.4 L52.4,60.6 C52.4,61.9232 53.4768,63 54.8,63 L59.6,63 C60.9232,63 62,61.9232 62,60.6 L62,49.4 C62,48.0768 60.9232,47 59.6,47 L59.6,47 Z M60.4,60.6 C60.4,61.0408 60.0408,61.4 59.6,61.4 L54.8,61.4 C54.3592,61.4 54,61.0408 54,60.6 L54,49.4 C54,48.9592 54.3592,48.6 54.8,48.6 L59.6,48.6 C60.0408,48.6 60.4,48.9592 60.4,49.4 L60.4,60.6 L60.4,60.6 Z M50.8,62.2 C50.8,62.6416 50.4416,63 50,63 L48.4,63 C47.9584,63 47.6,62.6416 47.6,62.2 C47.6,61.7584 47.9584,61.4 48.4,61.4 L50,61.4 C50.4416,61.4 50.8,61.7584 50.8,62.2 L50.8,62.2 Z M55.6,44.6 C55.6,45.0416 55.2416,45.4 54.8,45.4 L48.4,45.4 C47.9584,45.4 47.6,45.0416 47.6,44.6 C47.6,44.1584 47.9584,43.8 48.4,43.8 L54.8,43.8 C55.2416,43.8 55.6,44.1584 55.6,44.6 L55.6,44.6 Z M50.8,47.8 C50.8,48.2416 50.4416,48.6 50,48.6 L48.4,48.6 C47.9584,48.6 47.6,48.2416 47.6,47.8 C47.6,47.3584 47.9584,47 48.4,47 L50,47 C50.4416,47 50.8,47.3584 50.8,47.8 L50.8,47.8 Z M50.8,51 C50.8,51.4416 50.4416,51.8 50,51.8 L48.4,51.8 C47.9584,51.8 47.6,51.4416 47.6,51 C47.6,50.5584 47.9584,50.2 48.4,50.2 L50,50.2 C50.4416,50.2 50.8,50.5584 50.8,51 L50.8,51 Z M58.8,55 C58.8,55.8824 58.0824,56.6 57.2,56.6 C56.3176,56.6 55.6,55.8824 55.6,55 C55.6,54.1176 56.3176,53.4 57.2,53.4 C58.0824,53.4 58.8,54.1176 58.8,55 L58.8,55 Z" id="branding" fill="#FFFFFF"></path>
                    </g>
                </g>
            </g>
        </g>
    </g>
</svg>