<?xml version="1.0" encoding="UTF-8"?>
<svg width="76px" height="76px" viewBox="0 0 76 76" version="1.1" xmlns="http://www.w3.org/2000/svg" xmlns:xlink="http://www.w3.org/1999/xlink">
    <!-- Generator: sketchtool 53.2 (72643) - https://sketchapp.com -->
    <title>CB38979E-6883-473C-AF18-9F463738B731@3x</title>
    <desc>Created with sketchtool.</desc>
    <g id="Home" stroke="none" stroke-width="1" fill="none" fill-rule="evenodd">
        <g transform="translate(-1103.000000, -3865.000000)" id="Group-23">
            <g transform="translate(1058.000000, 3865.000000)">
                <g id="Icons/Services/Legacy" transform="translate(45.000000, 0.000000)">
                    <g>
                        <rect id="Rectangle-Copy-13" fill="#29BB9C" x="0" y="0" width="76" height="76" rx="20"></rect>
                        <path d="M60.4016,52.399456 L38,52.399456 L38,55.5996106 L60.4016,55.5996106 L60.4016,52.399456 Z M50,57.199688 L48.4,57.199688 L48.4,60.3998427 L50,60.3998427 L50,57.199688 Z M38,38.7987986 L38,50.7993786 L60.4008,50.7993786 L60.4,38.7987986 L38,38.7987986 Z M62,38.7987986 L62,55.5996106 C62,56.4820533 61.2824,57.199688 60.4,57.199688 L51.6,57.199688 L51.6,60.3998427 L54.8,60.3998427 C55.2424,60.3998427 55.6,60.75826 55.6,61.1998813 C55.6,61.6415027 55.2424,61.99992 54.8,61.99992 L43.6,61.99992 C43.1576,61.99992 42.8,61.6415027 42.8,61.1998813 C42.8,60.75826 43.1576,60.3998427 43.6,60.3998427 L46.8,60.3998427 L46.8,57.199688 L38,57.199688 C37.1176,57.199688 36.4,56.4820533 36.4,55.5996106 L36.4,38.7987986 C36.4,37.916356 37.1176,37.1987213 38,37.1987213 L60.4,37.1987213 C61.2824,37.1987213 62,37.916356 62,38.7987986 L62,38.7987986 Z M15.0472,31.5488482 C15.1008,31.5608488 15.1544,31.565649 15.208,31.565649 C15.58,31.565649 15.9136,31.3048364 15.9904,30.9264181 C16.5408,28.2390882 17.6272,25.7781693 19.2112,23.5980639 L24.4,23.5980639 C24.8424,23.5980639 25.2,23.2396466 25.2,22.7980252 C25.2,22.3564039 24.8424,21.9979866 24.4,21.9979866 L18.8,21.9979866 C18.7824,21.9979866 18.7672,22.006787 18.7496,22.0083871 C18.6912,22.0123873 18.6384,22.0259879 18.5832,22.0419887 C18.5368,22.0547893 18.4912,22.0667899 18.4488,22.0875909 C18.404,22.109992 18.3656,22.1403935 18.3248,22.171595 C18.2808,22.2051966 18.2392,22.2371981 18.2024,22.2796002 C18.1904,22.2932008 18.1736,22.2996011 18.1624,22.3148019 C16.3064,24.7637202 15.0488,27.552655 14.4232,30.6048026 C14.3344,31.0376235 14.6144,31.4608439 15.0472,31.5488482 L15.0472,31.5488482 Z M22.3584,20.1738984 C25.1928,17.7593817 28.668,16.2513088 32.332,15.7768859 C27.3888,20.124296 24.516,25.4061513 23.7896,31.5152466 C23.7376,31.9536678 24.0512,32.351287 24.4896,32.4040895 C24.5216,32.4072897 24.5536,32.4096898 24.5848,32.4096898 C24.9848,32.4096898 25.3304,32.1104753 25.3792,31.7040557 C26.1328,25.3565489 29.2168,20.1498972 34.8,15.8048872 C36.3944,17.0473473 37.8032,18.3802117 38.9912,19.772279 C39.28,20.1082952 39.7832,20.1474971 40.1192,19.8610833 C40.4552,19.5738694 40.4952,19.069045 40.2088,18.7330288 C39.328,17.7017789 38.3248,16.7081309 37.2328,15.7528847 C41.8544,16.3241123 46.0336,18.5194184 49.1128,22.0003867 L45.6248,22.0003867 C45.1832,22.0003867 44.8248,22.358804 44.8248,22.8004254 C44.8248,23.2420467 45.1832,23.600464 45.6248,23.600464 L50.8008,23.600464 L50.8016,23.600464 C50.8968,23.600464 50.9912,23.5780629 51.0832,23.5436613 C51.1152,23.5316607 51.1416,23.5140598 51.1712,23.4980591 C51.2072,23.4788581 51.2448,23.4676576 51.2784,23.4428564 C51.2944,23.4308558 51.3016,23.413255 51.3168,23.3996543 C51.3584,23.3636526 51.392,23.3228506 51.4256,23.2788485 C51.456,23.2380465 51.4856,23.2004447 51.5088,23.1556425 C51.5304,23.1116404 51.5432,23.0652382 51.5568,23.0164358 C51.5728,22.9636332 51.5856,22.9116307 51.5896,22.8564281 C51.5904,22.8364271 51.6008,22.8204263 51.6008,22.8004254 C51.6008,22.7684238 51.5864,22.7420225 51.5832,22.7116211 C51.5768,22.6564184 51.568,22.6052159 51.5504,22.5524134 C51.5336,22.4996108 51.5096,22.4524085 51.4824,22.4060063 C51.4664,22.378805 51.4616,22.3484035 51.4432,22.3228023 C47.516,17.0377468 41.4552,14.0048002 34.816,14 L34.784,14 C29.852,14.0016001 25.0712,15.7616851 21.3208,18.9562396 C20.984,19.2426534 20.9448,19.7474778 21.2304,20.083494 C21.5176,20.4211104 22.0216,20.4595122 22.3584,20.1738984 L22.3584,20.1738984 Z M30.6752,46.0015467 C30.2328,46.0015467 29.8752,46.3599641 29.8752,46.8015854 C29.8752,47.2432068 30.2328,47.6016241 30.6752,47.6016241 L34,47.6016241 C34.4424,47.6016241 34.8,47.2432068 34.8,46.8015854 C34.8,46.3599641 34.4424,46.0015467 34,46.0015467 L30.6752,46.0015467 Z M46,34.8010054 C46,30.1303796 44.956,26.0725835 42.8096,22.3972059 C42.6664,22.150794 42.4032,22.0003867 42.1184,22.0003867 L31.4128,22.0003867 C30.9704,22.0003867 30.6128,22.358804 30.6128,22.8004254 C30.6128,23.2420467 30.9704,23.600464 31.4128,23.600464 L41.6536,23.600464 C43.3832,26.7086142 44.2816,30.1223792 44.3888,34.0009667 L27.6,34.0009667 C27.1576,34.0009667 26.8,34.359384 26.8,34.8010054 C26.8,35.2426267 27.1576,35.6010441 27.6,35.6010441 L45.2,35.6010441 C45.6424,35.6010441 46,35.2426267 46,34.8010054 L46,34.8010054 Z M51.6488,25.58536 C53.0592,28.1598844 53.86,31.0536243 53.9832,34.0009667 L48.4,34.0009667 C47.9576,34.0009667 47.6,34.359384 47.6,34.8010054 C47.6,35.2426267 47.9576,35.6010441 48.4,35.6010441 L54.8,35.6010441 C55.2424,35.6010441 55.6,35.2426267 55.6,34.8010054 C55.6,31.3112367 54.7184,27.8582698 53.0512,24.8165228 C52.84,24.4293041 52.3528,24.2876972 51.9656,24.4997075 C51.5784,24.7125178 51.436,25.1981412 51.6488,25.58536 L51.6488,25.58536 Z M17.9528,44.0190509 C16.5416,41.4437264 15.74,38.5491865 15.6168,35.6010441 L23.6112,35.6010441 C23.6928,38.5555869 24.2304,41.3445217 25.212,43.9014452 C25.3696,44.3142652 25.8312,44.5214752 26.2456,44.3622675 C26.6576,44.2038599 26.864,43.7414375 26.7056,43.3294176 C25.7064,40.7244917 25.2,37.854753 25.2,34.7986053 L25.2,34.7962051 C25.1984,34.3337828 24.7856,33.9665651 24.3384,34.0009667 L14.8,34.0009667 C14.3576,34.0009667 14,34.359384 14,34.8010054 C14,38.2915741 14.8824,41.745341 16.5504,44.7886881 C16.6952,45.0535009 16.9696,45.2039082 17.252,45.2039082 C17.3824,45.2039082 17.5144,45.1719066 17.636,45.1055034 C18.0232,44.8926931 18.1656,44.4062696 17.9528,44.0190509 L17.9528,44.0190509 Z M32.376,53.848326 C30.2832,51.9890361 28.464,49.856133 27.0432,47.6016241 L20.4792,47.6016241 C23.552,51.0689917 27.7592,53.2738982 32.376,53.848326 L32.376,53.848326 Z M34.7424,54.4947572 C34.7816,54.5947621 34.8032,54.7035673 34.7984,54.8179729 C34.7824,55.2491937 34.4272,55.58681 34,55.58681 C33.9888,55.58681 33.9792,55.58681 33.9688,55.58601 C27.6672,55.3435983 21.904,52.316252 18.1568,47.2792085 C17.9768,47.0359967 17.9488,46.7127811 18.084,46.442368 C18.22,46.171955 18.4968,46.0015467 18.7992,46.0015467 L27.4816,46.0015467 C27.5136,46.0015467 27.5408,46.0159474 27.5712,46.0199476 C27.6264,46.0263479 27.6792,46.0343483 27.7312,46.0519492 C27.7808,46.06795 27.824,46.090351 27.8688,46.1159523 C27.9128,46.1399534 27.9528,46.1655547 27.992,46.1991563 C28.0352,46.235158 28.0696,46.27596 28.104,46.3199621 C28.1224,46.3439633 28.1496,46.3599641 28.1656,46.3871654 C29.7664,49.0304931 31.9624,51.5138132 34.5168,53.5683125 C34.8008,53.7963235 34.8752,54.1747418 34.7424,54.4947572 L34.7424,54.4947572 Z M49.768,53.4315059 C49.912,53.5835132 50,53.7915233 50,53.9995333 C50,54.2155438 49.912,54.4155534 49.768,54.5675608 C49.616,54.7115677 49.408,54.799572 49.2,54.799572 C48.992,54.799572 48.7832,54.7115677 48.632,54.5675608 C48.4872,54.4155534 48.4,54.2155438 48.4,53.9995333 C48.4,53.7915233 48.4872,53.5835132 48.632,53.4315059 C48.928,53.1354915 49.472,53.1354915 49.768,53.4315059 L49.768,53.4315059 Z" id="computer-internet" fill="#FFFFFF"></path>
                    </g>
                </g>
            </g>
        </g>
    </g>
</svg>