<?xml version="1.0" encoding="UTF-8"?>
<svg width="100px" height="86px" viewBox="0 0 100 86" version="1.1" xmlns="http://www.w3.org/2000/svg" xmlns:xlink="http://www.w3.org/1999/xlink">
    <!-- Generator: sketchtool 53.2 (72643) - https://sketchapp.com -->
    <title>89D686E4-4A59-4DDD-B255-47F471A859EF@3x</title>
    <desc>Created with sketchtool.</desc>
    <g id="Home" stroke="none" stroke-width="1" fill="none" fill-rule="evenodd">
        <g transform="translate(-461.000000, -2854.000000)" fill="#2883F1" id="Icons/Logistics">
            <g transform="translate(461.000000, 2854.000000)">
                <path d="M65,0 L8.33333333,0 C3.73833333,0 0,3.73833333 0,8.33333333 L0,61.6666667 C0,66.34 3.66,70 8.33333333,70 C9.25333333,70 10,69.2533333 10,68.3333333 C10,67.4133333 9.25333333,66.6666667 8.33333333,66.6666667 C5.53,66.6666667 3.33333333,64.47 3.33333333,61.6666667 L3.33333333,8.33333333 C3.33333333,5.57666667 5.57666667,3.33333333 8.33333333,3.33333333 L63.3333333,3.33333333 L63.3333333,50 L8.33333333,50 C7.41333333,50 6.66666667,50.7466667 6.66666667,51.6666667 C6.66666667,52.5866667 7.41333333,53.3333333 8.33333333,53.3333333 L63.3333333,53.3333333 L63.3333333,66.6666667 L36.5333333,66.6666667 C35.7216667,61.0216667 30.865,56.6666667 25,56.6666667 C18.5666667,56.6666667 13.3333333,61.9 13.3333333,68.3333333 C13.3333333,74.7666667 18.5666667,80 25,80 C30.865,80 35.7216667,75.645 36.5333333,70 L65,70 C65.92,70 66.6666667,69.2533333 66.6666667,68.3333333 L66.6666667,1.66666667 C66.6666667,0.746666667 65.92,0 65,0 L65,0 Z M25,76.6666667 C20.405,76.6666667 16.6666667,72.9283333 16.6666667,68.3333333 C16.6666667,63.7383333 20.405,60 25,60 C29.595,60 33.3333333,63.7383333 33.3333333,68.3333333 C33.3333333,72.9283333 29.595,76.6666667 25,76.6666667 L25,76.6666667 Z M97.845,42.155 L93.2766667,37.5866667 L91.6666667,18.3333333 C91.6666667,13.7383333 87.9283333,10 83.3333333,10 L71.6666667,10 C70.7466667,10 70,10.7466667 70,11.6666667 C70,12.5866667 70.7466667,13.3333333 71.6666667,13.3333333 L83.3333333,13.3333333 C86.0433333,13.3333333 88.3333333,15.6233333 88.3383333,18.4716667 L89.855,36.6666667 L84.3633333,36.6666667 L86.49,32.4116667 C86.9033333,31.5883333 86.5683333,30.5883333 85.745,30.1766667 C84.92,29.7633333 83.92,30.0983333 83.5083333,30.9216667 L80.6366667,36.6666667 L71.6666667,36.6666667 C70.7466667,36.6666667 70,37.4133333 70,38.3333333 C70,39.2533333 70.7466667,40 71.6666667,40 L90.9766667,40 L95.4883333,44.5116667 C96.4383333,45.4616667 96.6633333,47.6466667 96.6666667,48.3333333 L96.6666667,50 L95,50 C94.08,50 93.3333333,50.7466667 93.3333333,51.6666667 C93.3333333,52.5866667 94.08,53.3333333 95,53.3333333 L96.6666667,53.3333333 L96.6666667,66.6666667 L93.2,66.6666667 C92.3883333,61.0216667 87.5333333,56.6666667 81.6666667,56.6666667 C75.2333333,56.6666667 70,61.9 70,68.3333333 C70,74.7666667 75.2333333,80 81.6666667,80 C87.5333333,80 92.3883333,75.645 93.2,70 L98.3333333,70 C99.2533333,70 100,69.2533333 100,68.3333333 L100,48.3333333 C100,47.9216667 99.94,44.2483333 97.845,42.155 L97.845,42.155 Z M81.6666667,76.6666667 C77.0716667,76.6666667 73.3333333,72.9283333 73.3333333,68.3333333 C73.3333333,63.7383333 77.0716667,60 81.6666667,60 C86.2616667,60 90,63.7383333 90,68.3333333 C90,72.9283333 86.2616667,76.6666667 81.6666667,76.6666667 L81.6666667,76.6666667 Z M81.6666667,63.3333333 C78.91,63.3333333 76.6666667,65.5766667 76.6666667,68.3333333 C76.6666667,71.09 78.91,73.3333333 81.6666667,73.3333333 C84.4233333,73.3333333 86.6666667,71.09 86.6666667,68.3333333 C86.6666667,65.5766667 84.4233333,63.3333333 81.6666667,63.3333333 L81.6666667,63.3333333 Z M81.6666667,70 C80.7483333,70 80,69.2516667 80,68.3333333 C80,67.415 80.7483333,66.6666667 81.6666667,66.6666667 C82.585,66.6666667 83.3333333,67.415 83.3333333,68.3333333 C83.3333333,69.2516667 82.585,70 81.6666667,70 L81.6666667,70 Z M25,63.3333333 C22.2433333,63.3333333 20,65.5766667 20,68.3333333 C20,71.09 22.2433333,73.3333333 25,73.3333333 C27.7566667,73.3333333 30,71.09 30,68.3333333 C30,65.5766667 27.7566667,63.3333333 25,63.3333333 L25,63.3333333 Z M25,70 C24.0816667,70 23.3333333,69.2516667 23.3333333,68.3333333 C23.3333333,67.415 24.0816667,66.6666667 25,66.6666667 C25.9183333,66.6666667 26.6666667,67.415 26.6666667,68.3333333 C26.6666667,69.2516667 25.9183333,70 25,70 L25,70 Z"></path>
                <path d="M27,84.5 C27,85.328 26.244,86 25.3125,86 L1.6875,86 C0.756,86 0,85.328 0,84.5 C0,83.672 0.756,83 1.6875,83 L25.3125,83 C26.244,83 27,83.672 27,84.5 L27,84.5 Z" id="Path"></path>
                <path d="M53,84.5 C53,85.328 52.2533333,86 51.3333333,86 L34.6666667,86 C33.7466667,86 33,85.328 33,84.5 C33,83.672 33.7466667,83 34.6666667,83 L51.3333333,83 C52.2533333,83 53,83.672 53,84.5 L53,84.5 Z" id="Path"></path>
                <path d="M100,84.5 C100,85.328 99.2533333,86 98.3333333,86 L71.6666667,86 C70.7466667,86 70,85.328 70,84.5 C70,83.672 70.7466667,83 71.6666667,83 L98.3333333,83 C99.2533333,83 100,83.672 100,84.5 L100,84.5 Z" id="Path"></path>
                <path d="M67,84.5 C67,85.328 66.216,86 65.25,86 L61.75,86 C60.784,86 60,85.328 60,84.5 C60,83.672 60.784,83 61.75,83 L65.25,83 C66.216,83 67,83.672 67,84.5 L67,84.5 Z" id="Path"></path>
            </g>
        </g>
    </g>
</svg>