<?xml version="1.0" encoding="UTF-8"?>
<svg width="191px" height="64px" viewBox="0 0 191 64" version="1.1" xmlns="http://www.w3.org/2000/svg" xmlns:xlink="http://www.w3.org/1999/xlink">
    <!-- Generator: sketchtool 53.2 (72643) - https://sketchapp.com -->
    <title>997D2BA1-339E-44B5-9426-DAE296F7F83C@3x</title>
    <desc>Created with sketchtool.</desc>
    <defs>
        <polygon id="path-1" points="0.389725 0.380121212 13.6140375 0.380121212 13.6140375 27.9605789 0.389725 27.9605789"></polygon>
        <polygon id="path-3" points="0.0595711172 0.0145983471 24.0918087 0.0145983471 24.0918087 63.7355372 0.0595711172 63.7355372"></polygon>
    </defs>
    <g id="Home" stroke="none" stroke-width="1" fill="none" fill-rule="evenodd">
        <g transform="translate(-36.000000, -33.000000)" id="Logotype">
            <g transform="translate(36.000000, 33.000000)">
                <g>
                    <g id="SCIANT" transform="translate(82.000000, 18.000000)">
                        <g>
                            <path d="M51.1939467,6.99656695 L51.1939467,10.5216208 C51.3605171,10.4773627 51.5873902,10.2446914 51.8222755,10.0878912 C52.3359026,9.74604993 52.9553758,9.3291806 53.5158113,9.06278887 C55.7853855,7.98457678 58.7764835,7.48045573 61.1632895,8.32852559 C62.2955464,8.73064222 63.0908672,9.47038507 63.0908672,10.9039266 C63.0908672,12.6898471 60.9882852,13.4485577 59.5325865,13.7600506 C57.7053727,14.1512081 55.9080994,14.1596382 54.077512,14.7206625 C51.5245573,15.503399 49.7960206,16.9226094 49.1879333,19.4739846 C48.7708748,21.223234 49.0513034,23.1634257 49.9959051,24.6724168 C50.2780205,25.1234281 50.3109128,25.0779055 50.5141709,25.3434542 C50.5791122,25.4285984 50.6276074,25.4892952 50.7161638,25.5664308 C51.3255162,26.0971068 51.9770384,26.4743545 52.7909139,26.6775204 C53.4635209,26.8457012 54.212455,26.9599293 54.9331355,26.9574003 C55.1785633,26.9565573 55.5007399,26.939697 55.7381554,26.9595078 C56.2281675,27.0003939 56.7611927,26.9978649 57.3123509,26.9999724 C57.621455,27.0012369 57.774531,26.9586648 58.0330314,26.9561358 L60.456525,26.9574003 C61.5706489,26.9574003 62.5498298,26.9156712 63.6432905,26.9152497 C64.7582578,26.9144067 66.3058865,27.2351727 66.8216221,25.3354456 C66.944336,24.8827483 67,24.4110832 67,23.8572244 C67,22.0641383 66.8722258,20.4004545 66.8722258,18.6330803 L66.8722258,13.2820629 C66.7385478,13.3178909 66.2573913,13.963638 66.0115418,14.2060038 C65.6366531,14.575243 65.4363469,14.8917939 64.8940443,15.2968611 C64.5862054,15.5270033 63.2182198,16.5790821 63.2182198,16.7645446 L63.2182198,24.4093971 L56.7599276,24.4093971 C55.3240488,24.4093971 53.4255681,23.9596503 52.6631396,22.8557264 C51.8028774,21.6110195 52.1385484,19.8756797 53.0333898,18.8155924 C53.5284622,18.2288561 55.092537,17.4397971 55.9578596,17.1523301 C57.860979,16.5192282 59.0392008,16.4425141 60.9562362,16.0323889 C62.3609094,15.7318552 63.0950842,15.5143582 64.2467392,14.7345722 C64.3842125,14.6418409 64.5571083,14.5115956 64.6739184,14.397789 C64.9838658,14.0959908 64.9332622,14.2237071 65.2512218,13.8279131 C65.7108718,13.2576156 65.9693721,13.0118776 66.2902837,12.1907841 C66.8435504,10.7770534 66.589267,9.28787302 65.7678009,8.05876182 C64.9185028,6.78834304 63.695581,5.8424838 62.165242,5.41591983 C60.5417079,4.963644 59.9057885,5.00073652 58.2472536,5.00073652 C57.1356598,5.00073652 55.3657968,5.27808741 54.3537236,5.61065556 C53.3610485,5.93647962 52.8288666,6.13669492 51.9298083,6.5855987 C51.6675126,6.71668704 51.446965,6.86294958 51.1939467,6.99656695" id="Fill-1" fill="#3670B6"></path>
                            <path d="M76.8656408,9.07623879 L76.8656408,5.51722348 L73,5.51722348 L73,27 L76.8656408,27 L76.8656408,15.2627771 C76.8656408,12.6709998 77.5453598,10.6995165 79.542399,9.19062519 C80.2287901,8.67210152 81.1049186,8.28100093 81.9522737,8.10437487 C82.1787077,8.05727458 82.4881258,8.00386622 82.7120577,7.98073662 C83.3675903,7.91218888 84.2424678,7.92901041 84.8879923,8.06232104 C86.994704,8.49673706 88.1652384,9.67718796 88.738621,11.7214244 C88.9487917,12.4699826 89.0922416,13.4380616 89.0922416,14.3729182 L89.0922416,27 L93,27 L93,13.9490156 C93,11.1065975 92.2848356,8.11152402 89.8908071,6.40666191 C87.0038782,4.35191196 81.9551928,4.61222515 79.1162194,6.77000696 C78.9544213,6.89364521 78.8493359,6.97733233 78.6900398,7.10265273 L78.095807,7.64767031 C77.7521945,8.05727458 77.3864807,8.46141185 77.0712245,8.90213595 C76.9982486,9.00432674 77.0045037,9.03881088 76.8656408,9.07623879" id="Fill-3" fill="#8E8C92"></path>
                            <path d="M0.044094534,11.6644327 C0.044094534,13.2069682 0.0973572385,14.0371508 1.08708307,15.3006159 C1.29052913,15.5606681 1.51143838,15.7384462 1.74850108,15.9654234 C2.48588393,16.6724016 4.10952326,17.4463567 5.13985098,17.8362283 L7.98111066,18.894215 C9.43055475,19.4420197 11.2611328,20.3714273 11.2611328,22.1620253 C11.2611328,23.3188235 10.7442226,24.0154657 9.98370103,24.4512289 C8.81148495,25.122238 7.51353397,25.119344 6.07063857,25.119344 C4.84123057,25.119344 3.56991094,24.8055449 2.65789627,24.476862 C1.94627161,24.2205308 0.955672624,23.7363954 0.31652017,23.3204772 C0.180743932,23.232415 0.145817568,23.1931385 0,23.11996 L0,26.7441535 C2.75699983,28.1254483 6.50634496,28.3102549 9.63356424,27.5772301 C10.9022644,27.280382 11.8269399,26.8264276 12.788288,26.1488034 C13.232726,25.8358312 13.8356424,25.1912821 14.138192,24.7613071 C14.7441644,23.8997032 15,22.9955153 15,21.7452802 C15,16.18992 6.95820478,16.0253719 4.60766052,13.7994242 C3.6454392,12.8882078 3.50748006,11.4812799 4.21342919,10.4059289 C4.27847954,10.3075307 4.32693987,10.2566779 4.4094534,10.1744038 C5.52709704,9.06473748 6.81020432,8.8733159 8.53382036,8.8733159 C9.94571861,8.8733159 11.6282962,9.22887218 12.8009488,9.78949348 L13.9443507,10.3728538 L13.9443507,6.91568915 L12.8288899,6.5559985 C9.40435997,5.49635808 4.28677455,5.89904625 1.81355143,8.21636365 C1.48306071,8.52602837 1.26302462,8.7786387 0.979684499,9.13460842 C0.564497351,9.65719347 0.044094534,10.7697539 0.044094534,11.6644327" id="Fill-5" fill="#8E8C92"></path>
                            <path d="M18,17.4598443 C18,19.1501062 18.3169543,20.5612764 18.7851922,21.7979627 C19.4051496,23.4348871 20.2932321,24.4003375 21.5026287,25.5530895 L22.2481471,26.1373215 C22.7246685,26.4763662 23.3703485,26.8460076 23.9310133,27.0825119 C25.6866874,27.8242756 27.092273,28 29.2015234,28 C30.2753315,28 31.5156823,27.8135254 32.3592953,27.5786749 C32.9792527,27.4058448 33.7653169,27.1494939 34.3416767,26.8753639 C34.5352499,26.7835737 34.7419024,26.6310036 34.9559665,26.5830412 L34.9559665,23.3340006 L33.8834663,23.9831472 C32.7791398,24.6037644 31.1638499,25.125149 29.7726515,25.125149 C28.0845536,25.125149 26.7282333,24.9796078 25.3536019,24.1915356 C24.6752238,23.8028746 24.3626292,23.5105519 23.809376,22.9904077 C23.2094735,22.4268493 22.7290283,21.606113 22.3863514,20.7986077 C21.3975585,18.468709 21.5396866,14.4898953 23.0773729,12.2770084 C23.2160131,12.0768894 23.3219552,11.9234923 23.4719309,11.7345369 L23.9196779,11.2007482 C25.2101659,9.81231879 27.235709,8.8778785 29.2895904,8.8778785 C30.7836791,8.8778785 31.4084323,8.95147601 32.77696,9.4033978 C33.4348473,9.62088257 33.8891339,9.86069468 34.4589542,10.1819602 C34.6612469,10.2964912 34.802503,10.4035797 35,10.5028123 L35,7.00320935 L33.9187803,6.612481 C30.3812736,5.50438366 25.6461416,5.87774631 22.7373118,7.91325496 C22.0593696,8.38791755 22.0144641,8.48839056 21.5074244,8.87167646 C21.3007719,9.02838127 20.6664273,9.74326944 20.4702382,9.97067748 C20.2430949,10.2328169 20.0495217,10.5123221 19.8533326,10.8021639 C19.4940887,11.3330583 19.11261,12.0301673 18.8728233,12.6636021 C18.3701434,13.991665 18.2358628,14.7239189 18.0806555,16.1202042 C18.0383659,16.5043171 18,17.0352115 18,17.4598443" id="Fill-7" fill="#8E8C92"></path>
                            <g id="Group-11" transform="translate(95.000000, 0.000000)">
                                <mask id="mask-2" fill="white">
                                    <use xlink:href="#path-1"></use>
                                </mask>
                                <g id="Clip-10"></g>
                                <path d="M4.2690375,1.44878788 L4.2690375,6.53545455 L0.389725,6.53545455 L0.389725,9.44193939 L4.2690375,9.44193939 L4.2690375,22.0945455 C4.2690375,24.3939394 5.1151625,26.6038182 7.4234125,27.4993939 C9.1340375,28.1633333 12.035975,28.1192121 13.6140375,27.3097576 L13.6140375,24.4028485 C12.65985,25.0226667 12.1156,25.0867273 10.96935,25.0867273 C8.4891625,25.0867273 7.9274125,23.3006667 7.9274125,21.3253939 L7.9274125,9.44193939 L13.6140375,9.44193939 L13.6140375,6.53545455 L7.9274125,6.53545455 L7.9274125,0.37969697 C7.6885375,0.399212121 7.2265375,0.562545455 6.995975,0.630848485 L4.2690375,1.44878788 Z" id="Fill-9" fill="#8E8C92" mask="url(#mask-2)"></path>
                            </g>
                            <path d="M40,6.12604742 L40,27 L44,27 L44,6.12604742 C44,6.02953586 43.9665192,6 43.8555542,6 L40.1444458,6 C40.0334808,6 40,6.02953586 40,6.12604742" id="Fill-12" fill="#8E8C92"></path>
                            <path d="M40,3.8637594 C40,3.96796992 40.0334808,4 40.1444458,4 L43.8555542,4 C43.9665192,4 44,3.96796992 44,3.8637594 L44,1 L40,1 L40,3.8637594 Z" id="Fill-14" fill="#333333"></path>
                        </g>
                    </g>
                    <g id="Logo">
                        <g id="Group-8">
                            <g>
                                <path d="M63.985288,33.9934678 C61.6810224,29.9606744 59.0214373,25.8080793 55.4331884,23.2721455 C47.1017693,17.3841455 40.2657195,20.9128727 32.082483,25.0964099 C28.2613378,27.0502612 23.9744,28.4857653 19.7097693,27.0708893 C17.035844,26.1836165 14.9854539,24.3694017 13.3055203,22.2216992 L0.0001593361,30.0151537 C2.64487303,34.4213686 5.83265726,38.9116826 10.1004747,41.3309884 C18.0999436,45.8652033 26.6894871,44.2562116 34.6913461,40.5143273 C41.4509145,37.3534678 46.3754622,37.3386579 50.530151,41.874724 L63.985288,33.9934678 Z" id="Fill-1" fill="#8E8C92"></path>
                                <g id="Group-5" transform="translate(19.917012, 0.249917)">
                                    <mask id="mask-4" fill="white">
                                        <use xlink:href="#path-3"></use>
                                    </mask>
                                    <g id="Clip-4"></g>
                                    <path d="M13.9520797,0.0145983471 C9.9025527,2.30934215 5.73272697,4.95793719 3.18627054,8.53135868 C-2.726161,16.8283504 0.817208299,23.6361521 5.01810456,31.7855736 C6.98006307,35.5909289 8.42152365,39.8601521 7.00077676,44.1074248 C6.10982241,46.7700364 4.28807967,48.8119537 2.13146556,50.4849455 L9.95725809,63.7355901 C14.381756,61.101805 18.8907021,57.9269289 21.3197809,53.6767471 C25.8730755,45.7103339 24.2574075,37.1562843 20.4999967,29.1874909 C17.3260216,22.456119 17.3111502,17.5516562 21.8660382,13.4141355 L13.9520797,0.0145983471 Z" id="Fill-3" fill="#3670B6" mask="url(#mask-4)"></path>
                                </g>
                                <path d="M22.724249,27.6268694 C23.4014274,29.0623736 24.1569461,30.5256463 24.9353029,32.0354645 C26.7238506,35.5049521 28.0795353,39.3594975 27.2284149,43.2312331 C29.7485809,42.6004893 32.2475021,41.6571504 34.6914523,40.5144066 C38.0207801,38.957514 40.9047635,38.1643901 43.4711369,38.3019107 C42.8648631,35.3073983 41.7827054,32.3337785 40.417195,29.4373818 C39.1403817,26.730076 38.3753029,24.3181752 38.2127801,22.1331835 C36.2266556,22.9760264 34.1996349,24.014043 32.0825892,25.0964893 C29.1624896,26.5893818 25.9701909,27.7799934 22.724249,27.6268694" id="Fill-6" fill="#333333"></path>
                            </g>
                        </g>
                    </g>
                </g>
            </g>
        </g>
    </g>
</svg>