<?xml version="1.0" encoding="UTF-8"?>
<svg width="76px" height="76px" viewBox="0 0 76 76" version="1.1" xmlns="http://www.w3.org/2000/svg" xmlns:xlink="http://www.w3.org/1999/xlink">
    <!-- Generator: sketchtool 53.2 (72643) - https://sketchapp.com -->
    <title>86D5B84B-94BE-4154-95E0-1EE53CFB5FDC@3x</title>
    <desc>Created with sketchtool.</desc>
    <g id="Home" stroke="none" stroke-width="1" fill="none" fill-rule="evenodd">
        <g transform="translate(-1102.000000, -3604.000000)" id="Group-22">
            <g transform="translate(1058.000000, 3604.000000)">
                <g id="Group-12">
                    <g id="Icons/Services/MaschineLearning" transform="translate(44.000000, 0.000000)">
                        <g>
                            <rect id="Rectangle-Copy-9" fill="#FD55A3" x="0" y="0" width="76" height="76" rx="20"></rect>
                            <path d="M54.7720984,42 L54.7720984,48.4 C54.7720984,50.6056 52.9703443,52.4 50.7557049,52.4 L23.4442295,52.4 C21.2295902,52.4 19.4278361,50.6056 19.4278361,48.4 L19.4278361,42 C19.4278361,41.5584 19.7869016,41.2 20.2311148,41.2 C20.6753279,41.2 21.0343934,41.5584 21.0343934,42 L21.0343934,48.4 C21.0343934,49.7232 22.1156066,50.8 23.4442295,50.8 L50.7557049,50.8 C52.0843279,50.8 53.165541,49.7232 53.165541,48.4 L53.165541,42 C53.165541,41.5584 53.5246066,41.2 53.9688197,41.2 C54.4130328,41.2 54.7720984,41.5584 54.7720984,42 L54.7720984,42 Z M61.1983279,38.8 C61.1983279,40.1232 60.1171148,41.2 58.7884918,41.2 C57.742623,41.2 56.8598197,40.5296 56.5272623,39.6 L53.9688197,39.6 C53.5246066,39.6 53.165541,39.2416 53.165541,38.8 L53.165541,30.8 C53.165541,29.4768 52.0843279,28.4 50.7557049,28.4 L33.0835738,28.4 C32.6393607,28.4 32.2802951,28.0416 32.2802951,27.6 C32.2802951,27.1584 32.6393607,26.8 33.0835738,26.8 L50.7557049,26.8 C52.9703443,26.8 54.7720984,28.5944 54.7720984,30.8 L54.7720984,38 L56.5272623,38 C56.8598197,37.0704 57.742623,36.4 58.7884918,36.4 C60.1171148,36.4 61.1983279,37.4768 61.1983279,38.8 L61.1983279,38.8 Z M59.5917705,38.8 C59.5917705,38.3592 59.2319016,38 58.7884918,38 C58.345082,38 57.9852131,38.3592 57.9852131,38.8 C57.9852131,39.2408 58.345082,39.6 58.7884918,39.6 C59.2319016,39.6 59.5917705,39.2408 59.5917705,38.8 L59.5917705,38.8 Z M28.2639016,38 C26.9352787,38 25.8540656,36.9232 25.8540656,35.6 C25.8540656,34.2768 26.9352787,33.2 28.2639016,33.2 C29.5925246,33.2 30.6737377,34.2768 30.6737377,35.6 C30.6737377,36.9232 29.5925246,38 28.2639016,38 L28.2639016,38 Z M29.0671803,35.6 C29.0671803,35.1592 28.7073115,34.8 28.2639016,34.8 C27.8204918,34.8 27.460623,35.1592 27.460623,35.6 C27.460623,36.0408 27.8204918,36.4 28.2639016,36.4 C28.7073115,36.4 29.0671803,36.0408 29.0671803,35.6 L29.0671803,35.6 Z M45.9360328,38 C44.6074098,38 43.5261967,36.9232 43.5261967,35.6 C43.5261967,34.2768 44.6074098,33.2 45.9360328,33.2 C47.2646557,33.2 48.3458689,34.2768 48.3458689,35.6 C48.3458689,36.9232 47.2646557,38 45.9360328,38 L45.9360328,38 Z M45.9360328,36.4 C46.3794426,36.4 46.7393115,36.0408 46.7393115,35.6 C46.7393115,35.1592 46.3794426,34.8 45.9360328,34.8 C45.492623,34.8 45.1327541,35.1592 45.1327541,35.6 C45.1327541,36.0408 45.492623,36.4 45.9360328,36.4 L45.9360328,36.4 Z M44.3294754,54 L29.870459,54 C29.4262459,54 29.0671803,54.3584 29.0671803,54.8 C29.0671803,55.2416 29.4262459,55.6 29.870459,55.6 L44.3294754,55.6 C44.7736885,55.6 45.1327541,55.2416 45.1327541,54.8 C45.1327541,54.3584 44.7736885,54 44.3294754,54 L44.3294754,54 Z M42.722918,57.2 L31.4770164,57.2 C31.0328033,57.2 30.6737377,57.5584 30.6737377,58 C30.6737377,58.4416 31.0328033,58.8 31.4770164,58.8 L42.722918,58.8 C43.1671311,58.8 43.5261967,58.4416 43.5261967,58 C43.5261967,57.5584 43.1671311,57.2 42.722918,57.2 L42.722918,57.2 Z M42.722918,60.4 L31.4770164,60.4 C31.0328033,60.4 30.6737377,60.7584 30.6737377,61.2 C30.6737377,61.6416 31.0328033,62 31.4770164,62 L42.722918,62 C43.1671311,62 43.5261967,61.6416 43.5261967,61.2 C43.5261967,60.7584 43.1671311,60.4 42.722918,60.4 L42.722918,60.4 Z M44.3294754,42.8 C44.7736885,42.8 45.1327541,43.1584 45.1327541,43.6 L45.1327541,46.8 C45.1327541,47.2416 44.7736885,47.6 44.3294754,47.6 L29.870459,47.6 C29.4262459,47.6 29.0671803,47.2416 29.0671803,46.8 L29.0671803,43.6 C29.0671803,43.1584 29.4262459,42.8 29.870459,42.8 L44.3294754,42.8 L44.3294754,42.8 Z M35.4934098,46 L38.7065246,46 L38.7065246,44.4 L35.4934098,44.4 L35.4934098,46 Z M30.6737377,46 L33.8868525,46 L33.8868525,44.4 L30.6737377,44.4 L30.6737377,46 Z M40.313082,46 L43.5261967,46 L43.5261967,44.4 L40.313082,44.4 L40.313082,46 Z M17.6718689,39.6 C17.3385082,40.5296 16.4557049,41.2 15.4098361,41.2 C14.0812131,41.2 13,40.1232 13,38.8 C13,37.4768 14.0812131,36.4 15.4098361,36.4 C16.4557049,36.4 17.3385082,37.0704 17.6718689,38 L19.4262295,38 L19.4278361,30.8 C19.4278361,28.5944 21.2295902,26.8 23.4442295,26.8 L29.121,26.8 C29.5869016,23.3656 32.986377,20.8144 36.2966885,20.4496 L36.2966885,18.652 C35.364082,18.3208 34.6901311,17.4416 34.6901311,16.4 C34.6901311,15.0768 35.7713443,14 37.0999672,14 C38.4285902,14 39.5098033,15.0768 39.5098033,16.4 C39.5098033,17.4416 38.8358525,18.3208 37.9032459,18.6528 L37.9032459,20.452 C40.2632787,20.7008 42.5630656,22.0096 43.9238197,23.9424 C44.1792623,24.304 44.0909016,24.8024 43.7278197,25.0568 C43.3639344,25.3104 42.8634918,25.2216 42.6088525,24.8608 C41.4031311,23.1496 39.1900984,22 37.0999672,22 C34.1286393,22 30.6737377,24.4464 30.6737377,27.6 C30.6737377,28.0416 30.3146721,28.4 29.870459,28.4 L23.4442295,28.4 C22.1156066,28.4 21.0343934,29.4768 21.0343934,30.8 L21.0343934,38.8 C21.0343934,39.2416 20.6753279,39.6 20.2311148,39.6 L17.6718689,39.6 L17.6718689,39.6 Z M36.2966885,16.4 C36.2966885,16.8408 36.6565574,17.2 37.0999672,17.2 C37.543377,17.2 37.9032459,16.8408 37.9032459,16.4 C37.9032459,15.9592 37.543377,15.6 37.0999672,15.6 C36.6565574,15.6 36.2966885,15.9592 36.2966885,16.4 L36.2966885,16.4 Z M16.2131148,38.8 C16.2131148,38.3592 15.8532459,38 15.4098361,38 C14.9664262,38 14.6065574,38.3592 14.6065574,38.8 C14.6065574,39.2408 14.9664262,39.6 15.4098361,39.6 C15.8532459,39.6 16.2131148,39.2408 16.2131148,38.8 L16.2131148,38.8 Z" id="robot" fill="#FFFFFF"></path>
                        </g>
                    </g>
                </g>
            </g>
        </g>
    </g>
</svg>