<?xml version="1.0" encoding="UTF-8"?>
<svg width="100px" height="100px" viewBox="0 0 100 100" version="1.1" xmlns="http://www.w3.org/2000/svg" xmlns:xlink="http://www.w3.org/1999/xlink">
    <!-- Generator: sketchtool 53.2 (72643) - https://sketchapp.com -->
    <title>C63F22D7-45DD-4DC8-A189-73B37111B0FD@3x</title>
    <desc>Created with sketchtool.</desc>
    <g id="Home" stroke="none" stroke-width="1" fill="none" fill-rule="evenodd">
        <g transform="translate(-863.000000, -2839.000000)" fill="#2883F1" id="Icons/Travel">
            <g transform="translate(863.000000, 2839.000000)">
                <g>
                    <path d="M10,98.3333333 C10,99.2533333 9.255,100 8.33333333,100 C3.74,100 0,96.2616667 0,91.6666667 L0,28.3333333 C0,23.7383333 3.74,20 8.33333333,20 L25,20 C25.9216667,20 26.6666667,20.7466667 26.6666667,21.6666667 L26.6666667,91.6666667 C26.6666667,92.5866667 25.9216667,93.3333333 25,93.3333333 C24.08,93.3333333 23.3333333,92.5866667 23.3333333,91.6666667 L23.3333333,23.3333333 L8.33333333,23.3333333 C5.57666667,23.3333333 3.33333333,25.5766667 3.33333333,28.3333333 L3.33333333,91.6666667 C3.33333333,94.4233333 5.57666667,96.6666667 8.33333333,96.6666667 C9.255,96.6666667 10,97.4133333 10,98.3333333 L10,98.3333333 Z M70,98.3333333 C70,99.2533333 69.255,100 68.3333333,100 L15,100 C14.08,100 13.3333333,99.2533333 13.3333333,98.3333333 L13.3333333,27.9166667 C13.3333333,26.9966667 14.08,26.25 15,26.25 C15.9216667,26.25 16.6666667,26.9966667 16.6666667,27.9166667 L16.6666667,96.6666667 L68.3333333,96.6666667 C69.255,96.6666667 70,97.4133333 70,98.3333333 L70,98.3333333 Z M100,28.3333333 L100,91.6666667 C100,96.2616667 96.2616667,100 91.6666667,100 L75,100 C74.08,100 73.3333333,99.2533333 73.3333333,98.3333333 L73.3333333,28.3333333 C73.3333333,27.4133333 74.08,26.6666667 75,26.6666667 C75.9216667,26.6666667 76.6666667,27.4133333 76.6666667,28.3333333 L76.6666667,96.6666667 L91.6666667,96.6666667 C94.425,96.6666667 96.6666667,94.4233333 96.6666667,91.6666667 L96.6666667,28.3333333 C96.6666667,25.5766667 94.425,23.3333333 91.6666667,23.3333333 C90.7466667,23.3333333 90,22.5866667 90,21.6666667 C90,20.7466667 90.7466667,20 91.6666667,20 C96.2616667,20 100,23.7383333 100,28.3333333 L100,28.3333333 Z M33.3333333,15 C33.3333333,9.00333333 39.0033333,3.33333333 45,3.33333333 L55,3.33333333 C61.1066667,3.33333333 66.6666667,8.89333333 66.6666667,15 L66.6666667,20 L63.3333333,20 L63.3333333,15 C63.3333333,10.405 59.595,6.66666667 55,6.66666667 L45,6.66666667 C40.4066667,6.66666667 36.6666667,10.405 36.6666667,15 L36.6666667,20 L33.3333333,20 L33.3333333,15 Z M60,20 L40,20 L40,15 C40,12.2433333 42.2433333,10 45,10 L55,10 C57.7583333,10 60,12.2433333 60,15 L60,20 Z M31.6666667,23.3333333 L83.3333333,23.3333333 L83.3333333,91.6666667 C83.3333333,92.5866667 84.08,93.3333333 85,93.3333333 C85.9216667,93.3333333 86.6666667,92.5866667 86.6666667,91.6666667 L86.6666667,21.6666667 C86.6666667,20.7466667 85.9216667,20 85,20 L70,20 L70,15 C70,7.01 62.9916667,0 55,0 L45,0 C37.15,0 30,7.15 30,15 L30,21.6666667 C30,22.5866667 30.7466667,23.3333333 31.6666667,23.3333333 L31.6666667,23.3333333 Z" id="suitcase-2"></path>
                    <path d="M46.0379024,68.3984209 L43.9926551,71.8404494 L49.8533349,75.1283328 L52.084207,71.4583662 C52.5583939,70.6810811 53.5945175,70.421986 54.396079,70.8811418 C55.1976404,71.3419374 55.4642651,72.3471606 54.9900782,73.1277255 L51.9087072,78.1948375 C51.5948327,78.7113878 51.0328959,79 50.4557716,79 C50.168897,79 49.8786474,78.9294868 49.6137102,78.7802612 L40.8437842,73.8607349 C40.0371603,73.4081385 39.7604106,72.4045551 40.22616,71.6207106 L43.6011556,65.9386578 C43.9032177,65.4303067 44.460092,65.1187367 45.0625287,65.1187367 L63.6250044,65.1187367 L63.6250044,53.6398421 C63.6250044,52.7346493 64.3810034,52 65.3125022,52 C66.2456885,52 67,52.7346493 67,53.6398421 L67,66.7585788 C67,67.6637716 66.2456885,68.3984209 65.3125022,68.3984209 L46.0379024,68.3984209 Z" id="Path"></path>
                    <path d="M42.2376045,63 C41.6677142,63 41.1142948,62.7002371 40.8079376,62.1626735 L34.2196109,50.5606771 C34.0021961,50.1771816 33.9429012,49.7200013 34.0565498,49.2896155 C34.1685514,48.8609043 34.4452611,48.4958299 34.8240899,48.2731011 L51.9405626,38.2251828 C52.7295147,37.7613039 53.7342346,38.0376216 54.1904762,38.8381058 L60.7788029,50.4401021 C60.9978647,50.8252723 61.0571597,51.2824526 60.943511,51.7111638 C60.8315095,52.139875 60.5547998,52.506624 60.175971,52.7276782 L43.0594982,62.7755965 C42.7992593,62.9279899 42.5159613,63 42.2376045,63 Z M52.1612716,41.9630084 L37.8975443,50.3362736 L42.8387893,59.0377709 L57.1025166,50.6645056 L52.1612716,41.9630084 Z" id="Combined-Shape"></path>
                </g>
            </g>
        </g>
    </g>
</svg>