<?xml version="1.0" encoding="UTF-8"?>
<svg width="24px" height="24px" viewBox="0 0 24 24" version="1.1" xmlns="http://www.w3.org/2000/svg" xmlns:xlink="http://www.w3.org/1999/xlink">
    <!-- Generator: sketchtool 53.2 (72643) - https://sketchapp.com -->
    <title>89965B9E-F276-42AB-AF7A-A95967A6E30D@3x</title>
    <desc>Created with sketchtool.</desc>
    <g id="Home" stroke="none" stroke-width="1" fill="none" fill-rule="evenodd">
        <g transform="translate(-358.000000, -954.000000)" id="Group-2">
            <g transform="translate(358.000000, 954.000000)">
                <g id="Icons/Twitter-Active">
                    <g>
                        <rect id="Rectangle-Copy-2" fill="#2883F1" x="0" y="0" width="24" height="24" rx="3"></rect>
                        <path d="M20,6.53955556 C19.4111111,6.80044444 18.7782222,6.97688889 18.1146667,7.056 C18.7933333,6.64977778 19.3137778,6.00711111 19.5577778,5.24088889 C18.9231111,5.61688889 18.2217778,5.88977778 17.4724444,6.036 C16.8755556,5.39822222 16.0213333,5 15.0768889,5 C13.2648889,5 11.7951111,6.46977778 11.7951111,8.28222222 C11.7951111,8.54 11.8231111,8.78977778 11.88,9.02977778 C9.15244444,8.89244444 6.73377778,7.58711111 5.11333333,5.6 C4.83066667,6.08622222 4.66977778,6.64977778 4.66977778,7.25155556 C4.66977778,8.38933333 5.24933333,9.39422222 6.12933333,9.98355556 C5.59244444,9.96711111 5.08533333,9.81822222 4.64177778,9.57377778 L4.64177778,9.61377778 C4.64177778,11.2053333 5.77377778,12.532 7.276,12.8324444 C7.00088889,12.9093333 6.71155556,12.948 6.41111111,12.948 C6.19955556,12.948 5.99377778,12.9284444 5.79377778,12.8897778 C6.21155556,14.1937778 7.42266667,15.1431111 8.86,15.1684444 C7.736,16.0493333 6.32,16.5737778 4.78311111,16.5737778 C4.51822222,16.5737778 4.25644444,16.5591111 4,16.5284444 C5.45288889,17.4591111 7.17822222,18.0026667 9.03111111,18.0026667 C15.0706667,18.0026667 18.3711111,13.0017778 18.3711111,8.66355556 C18.3711111,8.52088889 18.3684444,8.37866667 18.3622222,8.23866667 C19.004,7.77555556 19.5617778,7.19733333 20,6.53955556" id="Fill-5" fill="#FFFFFF"></path>
                    </g>
                </g>
            </g>
        </g>
    </g>
</svg>